<svg viewBox="0 0 645 149.2" xmlns="http://www.w3.org/2000/svg"><g fill="#808080"><path d="m121.25 124.34q-9.82 13.29-22.74 19.08a67.58 67.58 0 0 1 -28 5.78 75 75 0 0 1 -28.62-5.3 64.4 64.4 0 0 1 -22.27-14.84 68 68 0 0 1 -14.41-22.75 77.9 77.9 0 0 1 -5.21-28.82 77.14 77.14 0 0 1 5.21-28.72 68.31 68.31 0 0 1 14.45-22.65 65.64 65.64 0 0 1 22.27-14.94 73.92 73.92 0 0 1 28.62-5.39 67.89 67.89 0 0 1 25.93 4.91q12 4.92 21.11 16.48l-10.41 8.68a37.73 37.73 0 0 0 -16.29-14.08 49.5 49.5 0 0 0 -20.34-4.43 59.84 59.84 0 0 0 -24 4.63 53.36 53.36 0 0 0 -18.21 12.72 56.41 56.41 0 0 0 -11.57 19.08 68.05 68.05 0 0 0 -4 23.71 68 68 0 0 0 4 23.71 56.36 56.36 0 0 0 11.57 19.09 53.36 53.36 0 0 0 18.21 12.71 59.84 59.84 0 0 0 24 4.63 49.85 49.85 0 0 0 21.69-5.11 52.76 52.76 0 0 0 10.12-6.52 42.07 42.07 0 0 0 8.48-9.55z"/><path d="m131.47 101.2a49.52 49.52 0 0 1 3.47-18.79 44.62 44.62 0 0 1 9.64-14.84 42.81 42.81 0 0 1 14.84-9.74 50.46 50.46 0 0 1 18.89-3.47 49.76 49.76 0 0 1 18.8 3.47 43.63 43.63 0 0 1 24.57 24.58 49.52 49.52 0 0 1 3.47 18.79 49.53 49.53 0 0 1 -3.47 18.8 43.63 43.63 0 0 1 -24.57 24.58 49.76 49.76 0 0 1 -18.8 3.47 50.46 50.46 0 0 1 -18.89-3.47 43 43 0 0 1 -14.84-9.74 44.62 44.62 0 0 1 -9.64-14.84 49.53 49.53 0 0 1 -3.47-18.8zm11.56 0a41.39 41.39 0 0 0 2.41 14.17 33.09 33.09 0 0 0 7 11.57 33.93 33.93 0 0 0 11.18 7.81 38.58 38.58 0 0 0 29.3 0 33.93 33.93 0 0 0 11.18-7.81 33.09 33.09 0 0 0 7-11.57 42.83 42.83 0 0 0 0-28.33 33.09 33.09 0 0 0 -7-11.57 33.93 33.93 0 0 0 -11.1-7.81 38.58 38.58 0 0 0 -29.3 0 33.93 33.93 0 0 0 -11.18 7.81 33.09 33.09 0 0 0 -7 11.57 41.37 41.37 0 0 0 -2.52 14.16z"/><path d="m248.09 0h11.57v145.74h-11.57z"/><path d="m282.59 101.2a49.52 49.52 0 0 1 3.48-18.79 44.76 44.76 0 0 1 9.63-14.84 42.76 42.76 0 0 1 14.85-9.74 50.42 50.42 0 0 1 18.89-3.47 49.71 49.71 0 0 1 18.79 3.47 43.61 43.61 0 0 1 24.58 24.58 49.71 49.71 0 0 1 3.47 18.79 49.73 49.73 0 0 1 -3.47 18.8 43.61 43.61 0 0 1 -24.58 24.58 49.71 49.71 0 0 1 -18.79 3.47 50.42 50.42 0 0 1 -18.89-3.47 42.9 42.9 0 0 1 -14.85-9.74 44.76 44.76 0 0 1 -9.63-14.84 49.54 49.54 0 0 1 -3.48-18.8zm11.57 0a41.15 41.15 0 0 0 2.41 14.17 33.09 33.09 0 0 0 7 11.57 33.93 33.93 0 0 0 11.18 7.81 38.58 38.58 0 0 0 29.3 0 33.93 33.93 0 0 0 11.18-7.81 33.24 33.24 0 0 0 7-11.57 42.83 42.83 0 0 0 0-28.33 33.24 33.24 0 0 0 -7-11.57 33.93 33.93 0 0 0 -11.18-7.81 38.58 38.58 0 0 0 -29.3 0 33.93 33.93 0 0 0 -11.18 7.81 33.09 33.09 0 0 0 -7 11.57 41.13 41.13 0 0 0 -2.41 14.16z"/><path d="m397.29 81.73c0-1.66-.06-3.69-.19-6.07s-.23-4.78-.29-7.22-.16-4.73-.29-6.85-.19-3.76-.19-4.91h11.56q.19 5 .29 9.63a31.42 31.42 0 0 0 .48 6 39.64 39.64 0 0 1 11.34-12.94q6.93-5 17-5a19.76 19.76 0 0 1 3.38.29c1.09.19 2.21.42 3.37.67l-1.35 11.37a14.11 14.11 0 0 0 -4.43-.77 32.19 32.19 0 0 0 -13 2.41 24.5 24.5 0 0 0 -9.08 6.66 27.91 27.91 0 0 0 -5.3 9.93 42 42 0 0 0 -1.73 12.24v48.58h-11.57z"/><path d="m531.84 129a38.89 38.89 0 0 1 -16.67 14.65 53 53 0 0 1 -21.88 4.44 47.59 47.59 0 0 1 -18.51-3.47 41.79 41.79 0 0 1 -14.26-9.74 42.74 42.74 0 0 1 -9.16-14.88 54.28 54.28 0 0 1 -3.18-19 50.77 50.77 0 0 1 3.28-18.5 44.14 44.14 0 0 1 9.25-14.75 43.44 43.44 0 0 1 14.07-9.83 44 44 0 0 1 17.93-3.57 43 43 0 0 1 18 3.57 39.59 39.59 0 0 1 13.1 9.44 40 40 0 0 1 8 13.4 44.76 44.76 0 0 1 2.73 15.24v8.1h-74.79a39.58 39.58 0 0 0 1.44 9.34 33.48 33.48 0 0 0 15.62 20.34q6.45 3.87 16.67 3.86a37.22 37.22 0 0 0 17.16-4.24 30.89 30.89 0 0 0 12.72-11.57zm-8.84-35.31a26.36 26.36 0 0 0 -2.41-11.18 29.93 29.93 0 0 0 -6.59-9.16 31.21 31.21 0 0 0 -9.83-6.27 31.71 31.71 0 0 0 -12.05-2.31q-9.44 0-15.71 3.86a34.41 34.41 0 0 0 -9.92 8.86 35.23 35.23 0 0 0 -5.21 9.74 25.67 25.67 0 0 0 -1.54 6.46z"/><path d="m633.43 130.12h-.38a30.09 30.09 0 0 1 -6.75 8 40.62 40.62 0 0 1 -8.77 5.59 44 44 0 0 1 -9.93 3.29 51.55 51.55 0 0 1 -10.21 1.06 50.42 50.42 0 0 1 -18.89-3.47 42.9 42.9 0 0 1 -14.85-9.74 44.94 44.94 0 0 1 -9.65-14.85 49.73 49.73 0 0 1 -3.47-18.8 49.71 49.71 0 0 1 3.47-18.79 44.94 44.94 0 0 1 9.64-14.84 42.76 42.76 0 0 1 14.85-9.74 50.42 50.42 0 0 1 18.89-3.47 51.55 51.55 0 0 1 10.21 1.06 44 44 0 0 1 9.93 3.28 40.62 40.62 0 0 1 8.77 5.59 30.09 30.09 0 0 1 6.75 8h.38v-72.29h11.58v145.74h-11.57zm1.16-28.92a35.06 35.06 0 0 0 -2.89-14.2 36.31 36.31 0 0 0 -7.9-11.57 38.17 38.17 0 0 0 -11.8-7.77 37 37 0 0 0 -14.65-2.89 36 36 0 0 0 -14.65 2.89 34.08 34.08 0 0 0 -11.19 7.81 33.07 33.07 0 0 0 -7 11.57 42.83 42.83 0 0 0 0 28.33 33.07 33.07 0 0 0 7 11.57 34.08 34.08 0 0 0 11.19 7.81 36 36 0 0 0 14.65 2.89 37 37 0 0 0 14.65-2.89 38.17 38.17 0 0 0 11.76-7.81 36.31 36.31 0 0 0 7.9-11.57 35.07 35.07 0 0 0 2.93-14.17z"/></g></svg>