<svg enable-background="new 0 0 645 124.4" viewBox="0 0 645 124.4" xmlns="http://www.w3.org/2000/svg"><g fill="#cef2f2"><path d="m23.5 15.6h29l28.6 74.9 28.9-74.9h28.7v107h-18.2v-88.9h-.3l-32.5 88.9h-13.3l-32.4-88.9h-.3v88.9h-18.2z"/><path d="m174.3 86.3c0 2.8.5 5.5 1.4 8.2.9 2.6 2.4 5 4.2 7 8.1 8.6 21.7 9.1 30.3 1 .3-.3.7-.6 1-1 1.9-2 3.3-4.4 4.2-7 1.9-5.3 1.9-11 0-16.3-.9-2.6-2.4-4.9-4.2-6.9-1.9-2-4.2-3.7-6.7-4.8-5.7-2.4-12.1-2.4-17.8 0-2.5 1.2-4.8 2.8-6.7 4.8s-3.3 4.4-4.2 6.9c-1 2.5-1.5 5.3-1.5 8.1zm-18.1 0c-.1-5.4 1-10.7 3.1-15.6 3.9-9.2 11.5-16.3 20.9-19.7 10-3.6 20.9-3.6 30.8 0 4.7 1.7 8.9 4.3 12.5 7.7s6.4 7.5 8.4 12c2.1 4.9 3.2 10.3 3.1 15.6.1 5.4-1 10.7-3.1 15.6-2 4.5-4.8 8.6-8.4 12s-7.9 6-12.5 7.7c-10 3.6-20.9 3.6-30.8 0-9.4-3.4-17-10.5-20.9-19.7-2.1-4.9-3.2-10.2-3.1-15.6z"/><path d="m242 65.4v-15.4h15v-21h18.1v21h19.9v15.4h-20v31.7c0 3.6.7 6.5 2 8.6s4 3.2 8.1 3.2c1.8 0 3.5-.2 5.3-.5 1.6-.2 3.2-.8 4.5-1.7v15.3c-2.2 1-4.6 1.6-7 1.9s-4.9.5-7.3.5c-4 .1-8-.4-11.9-1.6-2.8-.9-5.3-2.6-7.2-4.8-1.8-2.4-3.1-5.1-3.6-8.1-.7-3.7-1-7.4-1-11.2v-33.3z"/><path d="m308.2 50h18.1v72.5h-18.1zm-2.6-24.6c0-2.9 1.2-5.6 3.2-7.6 2.2-2.2 5.2-3.4 8.2-3.2 3.1-.1 6.1 1 8.4 3.1 2.2 2 3.5 4.8 3.4 7.8.1 3-1.2 5.8-3.4 7.8-2.3 2.1-5.3 3.2-8.4 3.1-3.1.1-6.1-1.1-8.2-3.2-2-2.2-3.2-4.9-3.2-7.8z"/><path d="m360.2 86.3c0 2.8.5 5.5 1.4 8.2.9 2.6 2.4 5 4.2 7 8.1 8.6 21.6 9.1 30.3 1 .3-.3.7-.7 1-1 1.9-2 3.3-4.4 4.2-7 1.9-5.3 1.9-11 0-16.3-.9-2.6-2.4-4.9-4.2-6.9-8.1-8.6-21.7-9.1-30.3-1-.3.3-.7.6-1 1-1.9 2-3.3 4.4-4.2 6.9s-1.4 5.3-1.4 8.1zm-18.1 0c-.1-5.4 1-10.7 3.1-15.6 2-4.5 4.8-8.6 8.4-12s7.9-6 12.5-7.7c10-3.6 20.9-3.6 30.8 0 4.7 1.7 8.9 4.3 12.5 7.7s6.4 7.5 8.4 12c2.1 4.9 3.2 10.3 3.1 15.6.1 5.4-1 10.7-3.1 15.6-2 4.5-4.8 8.6-8.4 12s-7.9 6-12.5 7.7c-10 3.6-20.9 3.6-30.8 0-4.7-1.7-8.9-4.3-12.5-7.7s-6.4-7.5-8.4-12c-2.1-4.9-3.2-10.2-3.1-15.6z"/><path d="m436.4 50h17.2v11.7h.3c1.8-3.7 4.5-7 7.9-9.5 3.5-2.7 8.3-4 14.4-4 4.2-.1 8.4.7 12.3 2.4 3.2 1.5 6 3.7 8.2 6.4 2.1 2.6 3.7 5.7 4.5 9 .9 3.5 1.4 7.1 1.4 10.7v45.8h-18.1v-36.7c0-2-.1-4.3-.3-6.7s-.7-4.8-1.6-7c-.8-2.1-2.2-4-4-5.4-2.1-1.6-4.8-2.3-7.4-2.2-2.6-.1-5.2.4-7.7 1.5-2 1-3.7 2.4-5.1 4.1-1.4 1.8-2.4 3.8-2.9 5.9-.6 2.3-.9 4.6-.9 7v39.6h-18.1v-72.6z"/></g><path d="m15.7 10.7h29l28.5 75 28.9-75h28.7v107h-18.1v-88.8h-.3l-32.5 88.8h-13.3l-32.5-88.8h-.3v88.8h-18.1z" fill="#95e6e5"/><path d="m166.5 81.5c0 2.8.5 5.5 1.4 8.2.9 2.6 2.4 4.9 4.2 6.9 8.1 8.6 21.7 9.1 30.3 1 .3-.3.7-.6 1-1 1.9-2 3.3-4.4 4.2-6.9 1.9-5.3 1.9-11.1 0-16.3-.9-2.6-2.4-5-4.2-7-8.1-8.6-21.7-9.1-30.3-1-.3.3-.7.6-1 1-1.9 2-3.3 4.4-4.2 7-.9 2.5-1.4 5.3-1.4 8.1zm-18.1 0c-.1-5.4 1-10.7 3.1-15.7 2-4.5 4.8-8.6 8.4-12s7.9-6 12.6-7.7c10-3.6 20.9-3.6 30.8 0 9.4 3.4 17 10.5 20.9 19.7 2.1 4.9 3.2 10.3 3.1 15.7.1 5.4-1 10.7-3.1 15.6-3.9 9.2-11.5 16.3-20.9 19.7-10 3.6-20.9 3.6-30.8 0-4.7-1.7-8.9-4.3-12.6-7.7-3.6-3.4-6.4-7.5-8.4-12-2.2-4.9-3.2-10.3-3.1-15.6z" fill="#95e6e5"/><path d="m234.2 60.6v-15.4h15v-21h18.1v21h20v15.4h-20v31.7c0 3.6.7 6.5 2 8.6 1.4 2.1 4 3.2 8.1 3.2 1.8 0 3.5-.2 5.3-.5 1.6-.2 3.2-.8 4.5-1.7v15.3c-2.2 1-4.6 1.6-7 1.9s-4.9.5-7.3.5c-4 .1-8-.4-11.9-1.5-2.8-.9-5.3-2.6-7.3-4.8-1.9-2.4-3.1-5.1-3.6-8.1-.7-3.7-1-7.4-1-11.2v-33.4z" fill="#95e6e5"/><path d="m300.4 45.2h18.1v72.5h-18.1zm-2.6-24.6c0-2.9 1.2-5.6 3.2-7.6 2.2-2.2 5.2-3.3 8.2-3.2 3.1-.1 6.1 1 8.4 3.1 2.2 2 3.5 4.8 3.4 7.8.1 3-1.2 5.8-3.4 7.8-2.3 2.1-5.3 3.2-8.4 3.1-3.1.1-6.1-1.1-8.2-3.2-2-2.2-3.2-5-3.2-7.8z" fill="#95e6e5"/><path d="m352.4 81.5c0 2.8.5 5.5 1.4 8.2.9 2.6 2.4 4.9 4.2 6.9 8.1 8.6 21.7 9.1 30.3 1 .3-.3.6-.6 1-1 1.9-2 3.3-4.4 4.2-6.9 1.9-5.3 1.9-11.1 0-16.3-.9-2.6-2.4-5-4.2-7-1.9-2-4.2-3.7-6.7-4.8-5.7-2.4-12.1-2.4-17.8 0-2.6 1.2-4.9 2.8-6.8 4.9-1.9 2-3.3 4.4-4.2 7-1 2.4-1.4 5.2-1.4 8zm-18.2 0c-.1-5.4 1-10.7 3.1-15.7 2-4.5 4.8-8.6 8.4-12s7.9-6 12.5-7.7c10-3.6 20.9-3.6 30.8 0 4.7 1.7 8.9 4.3 12.5 7.7s6.4 7.5 8.4 12c2.1 4.9 3.2 10.3 3.1 15.7.1 5.4-1 10.7-3.1 15.6-2 4.5-4.8 8.6-8.4 12s-7.9 6-12.5 7.7c-10 3.6-20.9 3.6-30.8 0-4.7-1.7-8.9-4.3-12.5-7.7s-6.4-7.5-8.4-12c-2.1-4.9-3.1-10.3-3.1-15.6z" fill="#95e6e5"/><path d="m428.5 45.2h17.2v11.6h.3c1.8-3.7 4.5-7 7.9-9.4 3.5-2.7 8.3-4 14.4-4 4.2-.1 8.4.7 12.3 2.4 3.2 1.5 6 3.6 8.2 6.3 2.1 2.7 3.7 5.8 4.5 9.1.9 3.5 1.4 7.1 1.4 10.7v45.8h-18.1v-36.7c0-2-.1-4.2-.3-6.7-.2-2.4-.7-4.8-1.6-7-.8-2.1-2.2-4-4-5.5-2.1-1.6-4.8-2.3-7.4-2.2-2.6-.1-5.2.4-7.6 1.5-2 1-3.8 2.4-5.1 4.1-1.4 1.7-2.4 3.7-3 5.9-.6 2.3-.9 4.6-.9 6.9v39.6h-18.1v-72.4z" fill="#95e6e5"/><path d="m7.8 5.9h29l28.6 75 28.9-75h28.7v107h-18.1v-88.9h-.3l-32.5 88.9h-13.3l-32.5-88.9h-.3v88.9h-18.2z" fill="#70e0e0"/><path d="m158.7 76.6c0 2.8.5 5.5 1.4 8.2.9 2.6 2.4 5 4.2 7 8.1 8.6 21.7 9.1 30.3 1 .3-.3.7-.6 1-1 1.9-2 3.3-4.4 4.2-7 1.9-5.3 1.9-11 0-16.3-.9-2.6-2.4-4.9-4.2-7-8.1-8.6-21.7-9.1-30.3-1-.3.3-.7.6-1 1-1.9 2-3.3 4.4-4.2 7-1 2.6-1.4 5.3-1.4 8.1zm-18.2 0c-.1-5.4 1-10.7 3.1-15.6 2-4.5 4.8-8.6 8.4-12s7.9-6 12.5-7.7c10-3.6 20.9-3.6 30.8 0 4.7 1.7 8.9 4.3 12.6 7.7 3.6 3.4 6.4 7.5 8.4 12 2.1 4.9 3.2 10.3 3.1 15.6.1 5.4-1 10.7-3.1 15.6-3.9 9.2-11.5 16.3-20.9 19.7-10 3.6-20.9 3.6-30.8 0-9.4-3.4-17-10.5-20.9-19.7-2.2-4.9-3.3-10.2-3.2-15.6z" fill="#70e0e0"/><path d="m226.4 55.8v-15.4h15v-21h18.1v21h19.9v15.4h-19.9v31.7c0 3.6.7 6.5 2 8.6s4 3.2 8.1 3.2c1.8 0 3.5-.2 5.3-.5 1.6-.2 3.2-.8 4.6-1.8v15.3c-2.2 1-4.6 1.6-7 1.9s-4.9.5-7.3.5c-4 .1-8-.4-11.9-1.6-2.8-.9-5.3-2.6-7.2-4.8-1.9-2.4-3.1-5.1-3.6-8.1-.7-3.7-1-7.4-1-11.2v-33.2z" fill="#70e0e0"/><path d="m292.5 40.4h18.1v72.5h-18.1zm-2.5-24.7c0-2.9 1.2-5.7 3.2-7.6 2.2-2.2 5.2-3.3 8.2-3.2 3.1-.1 6.1 1 8.4 3.1 2.2 2 3.5 4.8 3.4 7.8.1 3-1.2 5.8-3.4 7.8-2.3 2.1-5.3 3.2-8.4 3.1-3.1.1-6.1-1.1-8.2-3.2-2-2.1-3.2-4.9-3.2-7.8z" fill="#70e0e0"/><path d="m344.5 76.6c0 2.8.5 5.5 1.5 8.2.9 2.6 2.4 5 4.2 7 8.1 8.6 21.6 9.1 30.3 1 .3-.3.7-.7 1-1 1.9-2 3.3-4.4 4.2-7 1.9-5.3 1.9-11 0-16.3-.9-2.6-2.4-4.9-4.2-7-8.1-8.6-21.6-9.1-30.3-1-.3.3-.7.7-1 1-1.9 2-3.3 4.4-4.2 7-1 2.6-1.5 5.3-1.5 8.1zm-18.1 0c-.1-5.4 1-10.7 3.1-15.6 2-4.5 4.8-8.6 8.4-12s7.9-6 12.5-7.7c10-3.6 20.9-3.6 30.8 0 9.4 3.4 17 10.5 20.9 19.7 2.1 4.9 3.2 10.3 3.1 15.6.1 5.4-1 10.7-3.1 15.6-3.9 9.2-11.5 16.3-20.9 19.7-10 3.6-20.9 3.6-30.8 0-9.4-3.4-17-10.5-20.9-19.7-2.1-4.9-3.2-10.2-3.1-15.6z" fill="#70e0e0"/><path d="m420.7 40.4h17.2v11.6h.3c1.8-3.7 4.5-7 7.9-9.5 3.5-2.7 8.3-4 14.4-4 4.2-.1 8.4.7 12.3 2.5 3.2 1.5 6 3.6 8.2 6.3 2.1 2.7 3.7 5.8 4.5 9.1.9 3.5 1.4 7.1 1.4 10.7v45.8h-18.1v-36.7c0-2-.1-4.2-.3-6.7-.2-2.4-.7-4.8-1.6-7-.8-2.1-2.2-4-4-5.4-2.1-1.6-4.8-2.3-7.4-2.2-2.6-.1-5.2.4-7.6 1.5-2 1-3.8 2.4-5.1 4.1-1.4 1.7-2.4 3.7-2.9 5.9-.6 2.3-.9 4.6-.9 7v39.6h-18.1v-72.6z" fill="#70e0e0"/><path d="m0 1.1h29l28.6 74.9 28.8-74.9h28.7v107h-18.1v-88.9h-.3l-32.5 88.9h-13.3l-32.5-88.9h-.3v88.9h-18.1z" fill="#00d9d6"/><path d="m150.8 71.8c0 2.8.5 5.5 1.4 8.2.9 2.6 2.4 5 4.2 7 8.1 8.6 21.7 9.1 30.3.9.3-.3.6-.6.9-.9 1.9-2 3.3-4.4 4.2-7 1.9-5.3 1.9-11 0-16.3-.9-2.6-2.4-4.9-4.2-7-8.1-8.6-21.7-9.1-30.3-1-.3.3-.7.6-1 1-1.9 2-3.3 4.4-4.2 7-.8 2.5-1.3 5.3-1.3 8.1zm-18.1 0c-.1-5.4 1-10.7 3.1-15.6 3.9-9.2 11.5-16.3 20.9-19.7 10-3.6 20.9-3.6 30.8 0 9.4 3.4 17 10.5 20.9 19.7 2.1 4.9 3.2 10.3 3.1 15.6.1 5.4-1 10.7-3.1 15.6-2 4.5-4.8 8.6-8.4 12s-7.9 6-12.6 7.7c-10 3.6-20.9 3.6-30.8 0-4.7-1.7-8.9-4.3-12.5-7.7s-6.4-7.5-8.4-12c-2-4.9-3.1-10.2-3-15.6z" fill="#00d9d6"/><path d="m218.5 50.9v-15.4h15v-21h18.1v21h20v15.4h-20v31.7c0 3.6.7 6.5 2 8.6s4 3.2 8.1 3.2c1.8 0 3.5-.2 5.3-.5 1.6-.2 3.2-.8 4.5-1.7v15.3c-2.2 1-4.6 1.6-7 1.9s-4.9.5-7.3.5c-4 .1-8-.4-11.9-1.6-2.8-.9-5.3-2.6-7.3-4.8-1.8-2.4-3.1-5.1-3.6-8.1-.7-3.7-1-7.4-1-11.2v-33.3z" fill="#00d9d6"/><path d="m284.7 35.5h18.1v72.5h-18.1zm-2.6-24.6c0-2.9 1.2-5.6 3.2-7.6 2.2-2.2 5.2-3.4 8.2-3.2 3.1-.1 6.1 1 8.4 3.1 2.2 2 3.5 4.8 3.4 7.8.1 3-1.2 5.8-3.4 7.8-2.3 2.1-5.3 3.2-8.4 3.1-3.1.1-6.1-1.1-8.2-3.2-2-2.2-3.2-4.9-3.2-7.8z" fill="#00d9d6"/><path d="m336.7 71.8c0 2.8.5 5.5 1.4 8.2.9 2.6 2.4 5 4.2 7 1.9 2 4.2 3.7 6.7 4.8 5.7 2.4 12.1 2.4 17.8 0 2.5-1.2 4.8-2.8 6.7-4.8s3.3-4.4 4.2-7c1.9-5.3 1.9-11 0-16.3-.9-2.6-2.4-4.9-4.2-7-8.1-8.6-21.7-9.1-30.3-1-.3.3-.6.6-1 1-1.9 2-3.3 4.4-4.2 7-.8 2.5-1.3 5.3-1.3 8.1zm-18.1 0c-.1-5.4 1-10.7 3.1-15.6 3.9-9.2 11.5-16.3 20.9-19.7 10-3.6 20.9-3.6 30.8 0 9.4 3.4 17 10.5 20.9 19.7 2.1 4.9 3.2 10.3 3.1 15.6.1 5.4-1 10.7-3.1 15.6-2 4.5-4.8 8.6-8.4 12s-7.9 6-12.5 7.7c-10 3.6-20.9 3.6-30.8 0-4.7-1.7-8.9-4.3-12.5-7.7s-6.4-7.5-8.4-12c-2.2-4.9-3.2-10.2-3.1-15.6z" fill="#00d9d6"/><path d="m412.9 34.5h17.2v11.6h.3c1.8-3.7 4.5-7 7.9-9.4 3.5-2.7 8.3-4 14.4-4 4.2-.1 8.4.7 12.3 2.4 3.2 1.5 6 3.6 8.2 6.3 2.1 2.7 3.7 5.8 4.5 9.1.9 3.5 1.4 7.1 1.4 10.7v45.8h-18.1v-36.7c0-2-.1-4.3-.3-6.7s-.7-4.7-1.6-6.9c-.8-2.1-2.2-4-4-5.4-2.1-1.6-4.8-2.3-7.4-2.2-2.6-.1-5.2.4-7.6 1.5-2 1-3.8 2.3-5.1 4.1-1.4 1.7-2.4 3.7-3 5.9-.6 2.3-.9 4.6-.9 7v39.6h-18.1v-72.7z" fill="#00d9d6"/><path d="m521.9 50h18.1v72.5h-18.1zm-2.6-24.6c0-2.9 1.2-5.6 3.2-7.6 2.2-2.2 5.2-3.4 8.2-3.2 3.1-.1 6.1 1 8.4 3.1 2.2 2 3.5 4.8 3.4 7.8.1 3-1.2 5.8-3.4 7.8-2.3 2.1-5.3 3.2-8.4 3.1-3.1.1-6.1-1.1-8.2-3.2-2-2.2-3.2-4.9-3.2-7.8z" fill="#ffd9e3"/><path d="m609 71.8c-1.9-2.1-4.2-3.9-6.7-5.3-2.2-1.3-4.6-2-7.1-2-5.9-.1-11.6 2.3-15.6 6.7-1.9 2-3.3 4.4-4.2 6.9-1.9 5.3-1.9 11 0 16.3.9 2.6 2.4 5 4.2 7 4 4.4 9.7 6.8 15.6 6.7 2.7 0 5.4-.6 7.8-1.7 2.4-1.2 4.6-2.9 6.2-5.1l12.1 13c-1.9 1.9-4 3.4-6.3 4.7s-4.7 2.3-7.2 3.2c-2.3.8-4.6 1.3-7 1.7-1.9.3-3.8.5-5.7.5-5.3 0-10.5-.9-15.4-2.7-9.4-3.4-17-10.5-20.9-19.7-2.1-4.9-3.2-10.3-3.1-15.6-.1-5.4 1-10.7 3.1-15.6 3.9-9.2 11.5-16.3 20.9-19.7 4.9-1.8 10.2-2.8 15.4-2.7 4.8 0 9.5.9 14 2.6 4.7 1.8 8.9 4.7 12.3 8.4z" fill="#ffd9e3"/><path d="m529.7 45.2h18.1v72.5h-18.1zm-2.5-24.6c0-2.9 1.2-5.6 3.2-7.6 2.2-2.2 5.2-3.3 8.2-3.2 3.1-.1 6.1 1 8.4 3.1 2.2 2 3.5 4.8 3.4 7.8.1 3-1.2 5.8-3.4 7.8-2.3 2.1-5.3 3.2-8.4 3.1-3.1.1-6.1-1.1-8.2-3.2-2.1-2.2-3.3-5-3.2-7.8z" fill="#ffa6be"/><path d="m616.8 67c-1.9-2.1-4.2-3.9-6.7-5.3-2.2-1.3-4.6-2-7.1-2-5.9-.1-11.6 2.3-15.6 6.7-1.9 2-3.3 4.4-4.2 7-1.9 5.3-1.9 11.1 0 16.3.9 2.6 2.4 4.9 4.2 6.9 4 4.3 9.7 6.7 15.6 6.6 2.7 0 5.4-.6 7.9-1.7 2.4-1.2 4.6-2.9 6.2-5.1l12.1 13c-1.9 1.8-4 3.4-6.3 4.7s-4.7 2.3-7.2 3.2c-2.3.8-4.6 1.4-7 1.7-1.9.3-3.8.5-5.8.5-5.3 0-10.5-.9-15.4-2.7-4.7-1.7-8.9-4.3-12.5-7.7s-6.4-7.5-8.4-12c-2.1-4.9-3.2-10.3-3.1-15.6-.1-5.4 1-10.7 3.1-15.7 2-4.5 4.8-8.6 8.4-12s7.9-6 12.5-7.7c4.9-1.8 10.2-2.8 15.5-2.8 4.8 0 9.5.9 14 2.6 4.7 1.8 8.9 4.7 12.3 8.4z" fill="#ffa6be"/><path d="m537.6 40.4h18.1v72.5h-18.1zm-2.6-24.7c0-2.9 1.2-5.7 3.2-7.6 2.2-2.2 5.2-3.3 8.2-3.2 3.1-.1 6.1 1 8.4 3.1 2.2 2 3.5 4.8 3.4 7.8.1 3-1.2 5.8-3.4 7.8-2.3 2.1-5.3 3.2-8.4 3.1-3.1.1-6.1-1.1-8.2-3.2-2-2.1-3.2-4.9-3.2-7.8z" fill="#ff4d7b"/><path d="m624.6 62.1c-1.9-2.1-4.2-3.9-6.6-5.3-2.2-1.3-4.6-2-7.1-2-5.9-.1-11.6 2.3-15.6 6.7-1.9 2-3.3 4.4-4.3 7-1.9 5.3-1.9 11 0 16.3.9 2.6 2.4 5 4.2 7 4 4.4 9.7 6.8 15.6 6.7 2.7 0 5.4-.6 7.9-1.7 2.4-1.2 4.6-2.9 6.2-5.1l12.1 13c-1.9 1.8-4 3.4-6.3 4.7s-4.7 2.3-7.2 3.2c-2.3.8-4.6 1.3-7 1.7-1.9.3-3.8.5-5.7.5-5.3 0-10.5-.9-15.4-2.8-9.4-3.4-17-10.5-20.9-19.7-2.1-4.9-3.2-10.3-3.1-15.6-.1-5.4 1-10.7 3.1-15.6 2-4.5 4.8-8.6 8.4-12s7.9-6 12.5-7.7c4.9-1.8 10.2-2.8 15.4-2.7 4.8 0 9.5.9 14 2.6 4.7 1.8 8.9 4.7 12.3 8.4z" fill="#ff4d7b"/><path d="m545.4 35.5h18.1v72.5h-18.1zm-2.6-24.6c0-2.9 1.2-5.6 3.2-7.6 2.2-2.2 5.2-3.4 8.2-3.2 3.1-.1 6.1 1 8.4 3.1 2.2 2 3.5 4.8 3.4 7.8.1 3-1.2 5.8-3.4 7.8-2.3 2.1-5.3 3.2-8.4 3.1-3.1.1-6.1-1.1-8.2-3.2-2-2.2-3.2-4.9-3.2-7.8z" fill="#ff2860"/><path d="m632.5 56.4c-1.9-2.1-4.2-3.8-6.7-5.3-2.2-1.3-4.6-2-7.1-2-5.9-.1-11.6 2.3-15.7 6.7-1.9 2-3.3 4.4-4.2 7-1.9 5.3-1.9 11 0 16.3.9 2.6 2.4 5 4.2 7 4 4.3 9.7 6.8 15.7 6.7 2.7 0 5.4-.6 7.8-1.7 2.4-1.2 4.6-2.9 6.2-5.1l12.1 13c-1.9 1.8-4 3.4-6.3 4.7s-4.7 2.3-7.2 3.2c-2.3.8-4.6 1.3-7 1.7-1.9.3-3.8.5-5.7.5-5.3 0-10.5-.9-15.4-2.7-4.7-1.7-8.9-4.3-12.5-7.7s-6.4-7.5-8.4-12c-2.1-4.9-3.2-10.3-3.1-15.6-.1-5.4 1-10.7 3.1-15.6 3.9-9.2 11.5-16.3 20.9-19.7 4.9-1.8 10.2-2.8 15.4-2.7 4.8 0 9.5.9 14 2.6 4.7 1.8 8.9 4.6 12.3 8.4z" fill="#ff265f"/></svg>