<svg viewBox="0 0 645 146.1" xmlns="http://www.w3.org/2000/svg" xmlns:xlink="http://www.w3.org/1999/xlink"><linearGradient id="a" gradientUnits="userSpaceOnUse" x1="496.14" x2="544.64" y1="121.46" y2="121.46"><stop offset="0" stop-color="#dadcee" stop-opacity=".3"/><stop offset=".13" stop-color="#dad5e9" stop-opacity=".42"/><stop offset=".42" stop-color="#dbc6df" stop-opacity=".67"/><stop offset=".68" stop-color="#dbbbd8" stop-opacity=".85"/><stop offset=".88" stop-color="#dbb4d4" stop-opacity=".96"/><stop offset="1" stop-color="#dbb2d2"/></linearGradient><linearGradient id="b" gradientUnits="userSpaceOnUse" x1="465.51" x2="514.01" y1="121.46" y2="121.46"><stop offset="0" stop-color="#f3b54c" stop-opacity=".9"/><stop offset=".31" stop-color="#eda844" stop-opacity=".92"/><stop offset=".81" stop-color="#dc862f" stop-opacity=".98"/><stop offset="1" stop-color="#d57726"/></linearGradient><linearGradient id="c" gradientUnits="userSpaceOnUse" x1="434.89" x2="483.38" y1="121.46" y2="121.46"><stop offset="0" stop-color="#2b80b0" stop-opacity=".9"/><stop offset=".27" stop-color="#2b7baa" stop-opacity=".91"/><stop offset=".56" stop-color="#2b6e9a" stop-opacity=".93"/><stop offset=".85" stop-color="#2c577e" stop-opacity=".97"/><stop offset="1" stop-color="#2c476b"/></linearGradient><linearGradient id="d" gradientUnits="userSpaceOnUse" x1="404.26" x2="452.76" y1="121.46" y2="121.46"><stop offset="0" stop-color="#5bbca3"/><stop offset="1" stop-color="#95d0bd" stop-opacity=".9"/></linearGradient><path d="m0 0h4.45l11.55 41.07h.13l11.71-41.07h5.5l11.73 41.07h.13l11.53-41.07h4.46l-13.5 46.38h-5.31l-11.72-41.27h-.13l-11.73 41.27h-5.3z"/><path d="m107.37 28.63a29.71 29.71 0 0 1 -.85 7.14 16.47 16.47 0 0 1 -2.85 6 14.38 14.38 0 0 1 -5.24 4.23 18.13 18.13 0 0 1 -8 1.57 18.1 18.1 0 0 1 -8-1.57 14.38 14.38 0 0 1 -5.24-4.19 16.31 16.31 0 0 1 -2.85-6 29.21 29.21 0 0 1 -.85-7.14v-28.67h4.32v27.51a32.68 32.68 0 0 0 .46 5.31 15.74 15.74 0 0 0 1.8 5.24 11 11 0 0 0 3.8 4 11.94 11.94 0 0 0 6.52 1.57 11.94 11.94 0 0 0 6.61-1.57 11.18 11.18 0 0 0 3.8-4 16.2 16.2 0 0 0 1.8-5.24 33.84 33.84 0 0 0 .46-5.31v-27.51h4.32z"/><path d="m136.92 22-15.86-22h5.11l13.37 18.87 13.16-18.87h5.18l-15.72 22 17.23 24.37h-5.39l-14.67-21-14.67 21h-5.18z"/><path d="m172.35 0h4.33v46.38h-4.33z"/><path d="m0 98.27h27.78v3.93h-23.46v16.51h21.82v3.92h-21.82v22h-4.32z"/><path d="m40 121.46a26.19 26.19 0 0 1 1.77-9.76 23.33 23.33 0 0 1 4.91-7.7 22.32 22.32 0 0 1 7.57-5.08 26.78 26.78 0 0 1 19.46 0 22.28 22.28 0 0 1 7.52 5.08 23.2 23.2 0 0 1 4.92 7.7 26.39 26.39 0 0 1 1.76 9.76 26.66 26.66 0 0 1 -1.76 9.79 23.13 23.13 0 0 1 -4.92 7.75 21.9 21.9 0 0 1 -7.56 5 27.06 27.06 0 0 1 -19.46 0 21.94 21.94 0 0 1 -7.57-5 23.26 23.26 0 0 1 -4.91-7.73 26.46 26.46 0 0 1 -1.73-9.81zm4.32 0a23 23 0 0 0 1.38 8 19.3 19.3 0 0 0 3.89 6.54 18.12 18.12 0 0 0 6.19 4.32 21.84 21.84 0 0 0 16.31 0 18 18 0 0 0 6.19-4.32 19 19 0 0 0 3.93-6.49 24.2 24.2 0 0 0 0-16.11 19 19 0 0 0 -3.93-6.49 18.16 18.16 0 0 0 -6.19-4.32 22 22 0 0 0 -16.31 0 18.25 18.25 0 0 0 -6.19 4.32 19.3 19.3 0 0 0 -3.93 6.49 23 23 0 0 0 -1.38 8.06z"/><path d="m137.11 126.89a29.21 29.21 0 0 1 -.85 7.14 16.47 16.47 0 0 1 -2.85 6 14.18 14.18 0 0 1 -5.24 4.19 20.84 20.84 0 0 1 -15.92 0 14.18 14.18 0 0 1 -5.24-4.19 16.47 16.47 0 0 1 -2.85-6 29.21 29.21 0 0 1 -.85-7.14v-28.62h4.32v27.51a33.84 33.84 0 0 0 .46 5.31 16.37 16.37 0 0 0 1.8 5.24 11.15 11.15 0 0 0 3.8 4 14.24 14.24 0 0 0 13 0 11.07 11.07 0 0 0 3.8-4 16.37 16.37 0 0 0 1.8-5.24 32.68 32.68 0 0 0 .46-5.31v-27.51h4.32z"/><path d="m155.52 98.27h12.19c.61 0 1.44 0 2.48.06a26.24 26.24 0 0 1 3.41.39 21.27 21.27 0 0 1 3.74 1 10.53 10.53 0 0 1 5.89 5.57 11.91 11.91 0 0 1 1 5.11 11.72 11.72 0 0 1 -1.14 5.5 10.81 10.81 0 0 1 -2.89 3.51 12.19 12.19 0 0 1 -3.83 2 25.12 25.12 0 0 1 -4 .91l13.49 22.28h-4.91l-13-22h-8.06v22h-4.32zm4.32 20.44h9.16a15 15 0 0 0 5.53-.86 9.1 9.1 0 0 0 3.31-2.09 6.69 6.69 0 0 0 1.61-2.69 8.38 8.38 0 0 0 0-5.24 6.69 6.69 0 0 0 -1.61-2.69 9.38 9.38 0 0 0 -3.31-2.09 15 15 0 0 0 -5.53-.85h-9.18z"/><path d="m225.75 136.07a11.07 11.07 0 0 0 4.42 4.38 13 13 0 0 0 6.19 1.45 12.3 12.3 0 0 0 4.06-.66 10.51 10.51 0 0 0 3.31-1.83 8.75 8.75 0 0 0 2.23-2.85 8.55 8.55 0 0 0 .81-3.77 7.22 7.22 0 0 0 -1-4 8 8 0 0 0 -2.72-2.58 19.84 19.84 0 0 0 -3.83-1.74c-1.42-.48-2.88-1-4.39-1.44s-3-1-4.39-1.64a14.62 14.62 0 0 1 -3.84-2.39 10.66 10.66 0 0 1 -2.72-3.7 13.22 13.22 0 0 1 -1-5.51 11.94 11.94 0 0 1 1.22-5.47 11.66 11.66 0 0 1 3.27-4 14.72 14.72 0 0 1 4.75-2.43 19.4 19.4 0 0 1 5.63-.81 18.18 18.18 0 0 1 7.05 1.34 13.39 13.39 0 0 1 5.6 4.49l-3.74 2.68a11 11 0 0 0 -3.83-3.44 11.16 11.16 0 0 0 -5.23-1.15 14.09 14.09 0 0 0 -4 .55 10.16 10.16 0 0 0 -3.31 1.64 8.1 8.1 0 0 0 -2.26 2.72 8.23 8.23 0 0 0 -.85 3.86 7.45 7.45 0 0 0 1.77 5.34 12.39 12.39 0 0 0 4.42 3 46.3 46.3 0 0 0 5.76 1.9 27.94 27.94 0 0 1 5.77 2.2 12.33 12.33 0 0 1 4.42 3.83 11.42 11.42 0 0 1 1.77 6.78 12.53 12.53 0 0 1 -1.18 5.57 12.34 12.34 0 0 1 -3.18 4.09 13.45 13.45 0 0 1 -4.62 2.52 17.38 17.38 0 0 1 -5.43.86 21.78 21.78 0 0 1 -8.45-1.61 15.44 15.44 0 0 1 -6.62-5.4z"/><path d="m267.47 98.27h28.37v3.93h-24v16.51h22.53v3.92h-22.57v18.08h25.09v3.94h-29.42z"/><path d="m327.09 98.27h4.45l19.53 46.38h-4.85l-5.05-12.32h-24.56l-5.24 12.32h-4.52zm2 4.71-10.78 25.42h21.29z"/><path d="m496.14 121.46a26.63 26.63 0 0 1 1.79-9.88 23.51 23.51 0 0 1 5-7.78 22.39 22.39 0 0 1 7.65-5.13 27 27 0 0 1 19.68 0 22.39 22.39 0 0 1 7.65 5.13 23.51 23.51 0 0 1 5 7.78 28.22 28.22 0 0 1 0 19.78 23.39 23.39 0 0 1 -5 7.82 22 22 0 0 1 -7.65 5.1 27.51 27.51 0 0 1 -19.68 0 22 22 0 0 1 -7.65-5.1 23.39 23.39 0 0 1 -5-7.82 26.81 26.81 0 0 1 -1.79-9.9z" fill="url(#a)"/><path d="m496.14 121.46a26.63 26.63 0 0 1 1.79-9.88 23.51 23.51 0 0 1 5-7.78 22.39 22.39 0 0 1 7.65-5.13 27 27 0 0 1 19.68 0 22.39 22.39 0 0 1 7.65 5.13 23.51 23.51 0 0 1 5 7.78 28.22 28.22 0 0 1 0 19.78 23.39 23.39 0 0 1 -5 7.82 22 22 0 0 1 -7.65 5.1 27.51 27.51 0 0 1 -19.68 0 22 22 0 0 1 -7.65-5.1 23.39 23.39 0 0 1 -5-7.82 26.81 26.81 0 0 1 -1.79-9.9z" fill="url(#a)"/><path d="m365.54 136.07a11.13 11.13 0 0 0 4.42 4.38 13.07 13.07 0 0 0 6.2 1.45 12.3 12.3 0 0 0 4.06-.66 10.73 10.73 0 0 0 3.31-1.83 8.72 8.72 0 0 0 2.22-2.85 8.42 8.42 0 0 0 .82-3.77 7.3 7.3 0 0 0 -1-4 8.11 8.11 0 0 0 -2.72-2.58 19.94 19.94 0 0 0 -3.84-1.74q-2.13-.72-4.38-1.44t-4.39-1.64a14.84 14.84 0 0 1 -3.84-2.39 10.64 10.64 0 0 1 -2.71-3.7 13.22 13.22 0 0 1 -1-5.51 11.93 11.93 0 0 1 1.21-5.47 11.69 11.69 0 0 1 3.28-4 14.62 14.62 0 0 1 4.75-2.43 19.4 19.4 0 0 1 5.63-.81 18.13 18.13 0 0 1 7 1.34 13.33 13.33 0 0 1 5.6 4.49l-3.73 2.68a11 11 0 0 0 -3.83-3.44 11.18 11.18 0 0 0 -5.2-1.15 14.21 14.21 0 0 0 -4 .55 10.26 10.26 0 0 0 -3.31 1.64 8.07 8.07 0 0 0 -2.25 2.72 8.23 8.23 0 0 0 -.86 3.86 7.45 7.45 0 0 0 1.77 5.34 12.47 12.47 0 0 0 4.42 3 45.92 45.92 0 0 0 5.77 1.9 27.85 27.85 0 0 1 5.76 2.2 12.36 12.36 0 0 1 4.43 3.83 11.42 11.42 0 0 1 1.76 6.78 12.67 12.67 0 0 1 -1.17 5.57 12.34 12.34 0 0 1 -3.18 4.09 13.45 13.45 0 0 1 -4.62 2.52 17.44 17.44 0 0 1 -5.44.86 21.86 21.86 0 0 1 -8.45-1.61 15.5 15.5 0 0 1 -6.62-5.4z"/><path d="m465.51 121.46a26.63 26.63 0 0 1 1.79-9.88 23.67 23.67 0 0 1 5-7.78 22.39 22.39 0 0 1 7.65-5.13 27 27 0 0 1 19.68 0 22.39 22.39 0 0 1 7.65 5.13 23.51 23.51 0 0 1 5 7.78 28.22 28.22 0 0 1 0 19.78 23.39 23.39 0 0 1 -5 7.82 22 22 0 0 1 -7.65 5.1 27.51 27.51 0 0 1 -19.68 0 22 22 0 0 1 -7.65-5.1 23.55 23.55 0 0 1 -5-7.82 26.81 26.81 0 0 1 -1.79-9.9z" fill="url(#b)"/><path d="m465.51 121.46a26.63 26.63 0 0 1 1.79-9.88 23.67 23.67 0 0 1 5-7.78 22.39 22.39 0 0 1 7.65-5.13 27 27 0 0 1 19.68 0 22.39 22.39 0 0 1 7.65 5.13 23.51 23.51 0 0 1 5 7.78 28.22 28.22 0 0 1 0 19.78 23.39 23.39 0 0 1 -5 7.82 22 22 0 0 1 -7.65 5.1 27.51 27.51 0 0 1 -19.68 0 22 22 0 0 1 -7.65-5.1 23.55 23.55 0 0 1 -5-7.82 26.81 26.81 0 0 1 -1.79-9.9z" fill="url(#b)"/><path d="m434.89 121.46a26.43 26.43 0 0 1 1.79-9.88 23.49 23.49 0 0 1 5-7.78 22.34 22.34 0 0 1 7.66-5.13 26.93 26.93 0 0 1 19.67 0 22.34 22.34 0 0 1 7.66 5.13 23.67 23.67 0 0 1 5 7.78 28.37 28.37 0 0 1 0 19.78 23.55 23.55 0 0 1 -5 7.82 22 22 0 0 1 -7.66 5.1 27.48 27.48 0 0 1 -19.67 0 22 22 0 0 1 -7.66-5.1 23.37 23.37 0 0 1 -5-7.82 26.61 26.61 0 0 1 -1.79-9.9z" fill="url(#c)"/><path d="m434.89 121.46a26.43 26.43 0 0 1 1.79-9.88 23.49 23.49 0 0 1 5-7.78 22.34 22.34 0 0 1 7.66-5.13 26.93 26.93 0 0 1 19.67 0 22.34 22.34 0 0 1 7.66 5.13 23.67 23.67 0 0 1 5 7.78 28.37 28.37 0 0 1 0 19.78 23.55 23.55 0 0 1 -5 7.82 22 22 0 0 1 -7.66 5.1 27.48 27.48 0 0 1 -19.67 0 22 22 0 0 1 -7.66-5.1 23.37 23.37 0 0 1 -5-7.82 26.61 26.61 0 0 1 -1.79-9.9z" fill="url(#c)"/><path d="m404.26 121.46a26.63 26.63 0 0 1 1.79-9.88 23.51 23.51 0 0 1 5-7.78 22.39 22.39 0 0 1 7.65-5.13 27 27 0 0 1 19.68 0 22.39 22.39 0 0 1 7.62 5.13 23.51 23.51 0 0 1 5 7.78 28.22 28.22 0 0 1 0 19.78 23.39 23.39 0 0 1 -5 7.82 22 22 0 0 1 -7.65 5.1 27.51 27.51 0 0 1 -19.68 0 22 22 0 0 1 -7.65-5.1 23.39 23.39 0 0 1 -5-7.82 26.81 26.81 0 0 1 -1.76-9.9z" fill="url(#d)"/><path d="m404.26 121.46a26.63 26.63 0 0 1 1.79-9.88 23.51 23.51 0 0 1 5-7.78 22.39 22.39 0 0 1 7.65-5.13 27 27 0 0 1 19.68 0 22.39 22.39 0 0 1 7.62 5.13 23.51 23.51 0 0 1 5 7.78 28.22 28.22 0 0 1 0 19.78 23.39 23.39 0 0 1 -5 7.82 22 22 0 0 1 -7.65 5.1 27.51 27.51 0 0 1 -19.68 0 22 22 0 0 1 -7.65-5.1 23.39 23.39 0 0 1 -5-7.82 26.81 26.81 0 0 1 -1.76-9.9z" fill="url(#d)"/><path d="m560.88 98.27h5.57l28.24 40.61h.13v-40.61h4.32v46.38h-5.57l-28.23-40.65h-.13v40.62h-4.33z"/><path d="m619.65 136.07a11.07 11.07 0 0 0 4.42 4.38 13 13 0 0 0 6.19 1.45 12.26 12.26 0 0 0 4.06-.66 10.51 10.51 0 0 0 3.31-1.83 8.75 8.75 0 0 0 2.23-2.85 8.55 8.55 0 0 0 .82-3.77 7.22 7.22 0 0 0 -1-4 8 8 0 0 0 -2.72-2.58 19.57 19.57 0 0 0 -3.83-1.74c-1.42-.48-2.88-1-4.39-1.44s-3-1-4.39-1.64a14.62 14.62 0 0 1 -3.85-2.39 10.66 10.66 0 0 1 -2.72-3.7 13.23 13.23 0 0 1 -1-5.51 11.93 11.93 0 0 1 1.21-5.47 11.77 11.77 0 0 1 3.27-4 14.72 14.72 0 0 1 4.74-2.42 19.42 19.42 0 0 1 5.64-.81 18.13 18.13 0 0 1 7 1.34 13.39 13.39 0 0 1 5.6 4.49l-3.73 2.68a11 11 0 0 0 -3.84-3.44 11.16 11.16 0 0 0 -5.17-1.16 14.19 14.19 0 0 0 -4 .55 10.16 10.16 0 0 0 -3.31 1.64 8.1 8.1 0 0 0 -2.26 2.72 8.23 8.23 0 0 0 -.85 3.86 7.45 7.45 0 0 0 1.77 5.34 12.39 12.39 0 0 0 4.42 3 46.3 46.3 0 0 0 5.73 1.89 27.94 27.94 0 0 1 5.77 2.2 12.33 12.33 0 0 1 4.42 3.83 11.42 11.42 0 0 1 1.77 6.78 12.53 12.53 0 0 1 -1.18 5.57 12.21 12.21 0 0 1 -3.18 4.09 13.5 13.5 0 0 1 -4.6 2.53 17.44 17.44 0 0 1 -5.44.86 21.78 21.78 0 0 1 -8.45-1.61 15.44 15.44 0 0 1 -6.62-5.4z"/></svg>