<svg enable-background="new 0 0 360 128.1" viewBox="0 0 360 128.1" xmlns="http://www.w3.org/2000/svg"><path d="m87.7 97.9c-19.4 19.5-45.6 30.3-73.1 30.2v-51.7c28.5 0 51.6-23.1 51.7-51.7h51.7c0 27.5-10.9 53.8-30.3 73.2z" fill="#00d8d6" opacity=".4"/><path d="m82.8 93.7c-19.4 19.4-45.6 30.3-73.1 30.2v-51.7c28.5 0 51.6-23.1 51.7-51.7h51.7c0 27.5-10.8 53.8-30.3 73.2z" fill="#00d8d6" opacity=".6"/><path d="m77.9 89.5c-19.4 19.5-45.6 30.3-73.1 30.2v-51.7c28.5 0 51.6-23.1 51.7-51.7h51.7c0 27.5-10.8 53.8-30.3 73.2z" fill="#00d8d6" opacity=".8"/><path d="m73.1 85.2c-19.4 19.5-45.6 30.4-73.1 30.3v-51.7c28.5 0 51.6-23.1 51.7-51.7h51.7c0 27.5-10.9 53.8-30.3 73.1z" fill="#00d8d6"/><g fill="#ff2860"><path d="m344.8 128.1h-101.2v-103.4h49.6v53.8h51.6z" opacity=".4"/><path d="m349.9 123.9h-101.2v-103.4h49.5v53.8h51.7z" opacity=".6"/><path d="m354.9 119.7h-101.2v-103.4h49.6v53.8h51.6z" opacity=".8"/><path d="m360 115.5h-101.2v-103.4h49.6v53.8h51.6z"/><path d="m178.6 104.1v24h-52v-103.9l20.5 5.2c17-17.4 44.9-17.7 62.2-.7s17.7 44.9.7 62.2c-8.2 8.4-19.6 13.2-31.4 13.2z" opacity=".4"/><path d="m182.9 98.8v24h-52v-104l20.5 5.2c17-17.4 44.9-17.7 62.2-.7s17.7 44.9.7 62.2c-8.3 8.5-19.6 13.3-31.4 13.3z" opacity=".6"/><path d="m187.2 93.4v24h-52v-104l20.5 5.2c17-17.4 44.9-17.7 62.2-.7s17.7 44.9.7 62.2c-8.3 8.5-19.6 13.3-31.4 13.3z" opacity=".8"/><path d="m191.5 88.1v24h-52v-104l20.5 5.2c17-17.4 44.9-17.7 62.2-.7s17.7 44.9.7 62.2c-8.3 8.5-19.6 13.3-31.4 13.3z"/></g></svg>