<svg enable-background="new 0 0 360 128.1" viewBox="0 0 360 128.1" xmlns="http://www.w3.org/2000/svg" xmlns:xlink="http://www.w3.org/1999/xlink"><clipPath id="a"><path d="m84.1 93.3c-22.3 22.4-52.5 34.9-84.1 34.8v-59.5c32.8 0 59.4-26.6 59.5-59.5h59.5c0 31.6-12.5 61.9-34.9 84.2z"/></clipPath><clipPath id="b"><path d="m84.1 93.3c-22.3 22.4-52.5 34.9-84.1 34.8v-59.5c32.8 0 59.4-26.6 59.5-59.5h59.5c0 31.6-12.5 61.9-34.9 84.2z"/></clipPath><clipPath id="c"><path d="m84.1 93.3c-22.3 22.4-52.5 34.9-84.1 34.8v-59.5c32.8 0 59.4-26.6 59.5-59.5h59.5c0 31.6-12.5 61.9-34.9 84.2z"/></clipPath><clipPath id="d"><path d="m84.1 93.3c-22.3 22.4-52.5 34.9-84.1 34.8v-59.5c32.8 0 59.4-26.6 59.5-59.5h59.5c0 31.6-12.5 61.9-34.9 84.2z"/></clipPath><clipPath id="e"><path d="m84.1 93.3c-22.3 22.4-52.5 34.9-84.1 34.8v-59.5c32.8 0 59.4-26.6 59.5-59.5h59.5c0 31.6-12.5 61.9-34.9 84.2z"/></clipPath><clipPath id="f"><path d="m84.1 93.3c-22.3 22.4-52.5 34.9-84.1 34.8v-59.5c32.8 0 59.4-26.6 59.5-59.5h59.5c0 31.6-12.5 61.9-34.9 84.2z"/></clipPath><clipPath id="g"><path d="m84.1 93.3c-22.3 22.4-52.5 34.9-84.1 34.8v-59.5c32.8 0 59.4-26.6 59.5-59.5h59.5c0 31.6-12.5 61.9-34.9 84.2z"/></clipPath><clipPath id="h"><path d="m84.1 93.3c-22.3 22.4-52.5 34.9-84.1 34.8v-59.5c32.8 0 59.4-26.6 59.5-59.5h59.5c0 31.6-12.5 61.9-34.9 84.2z"/></clipPath><clipPath id="i"><path d="m84.1 93.3c-22.3 22.4-52.5 34.9-84.1 34.8v-59.5c32.8 0 59.4-26.6 59.5-59.5h59.5c0 31.6-12.5 61.9-34.9 84.2z"/></clipPath><clipPath id="j"><path d="m84.1 93.3c-22.3 22.4-52.5 34.9-84.1 34.8v-59.5c32.8 0 59.4-26.6 59.5-59.5h59.5c0 31.6-12.5 61.9-34.9 84.2z"/></clipPath><clipPath id="k"><path d="m84.1 93.3c-22.3 22.4-52.5 34.9-84.1 34.8v-59.5c32.8 0 59.4-26.6 59.5-59.5h59.5c0 31.6-12.5 61.9-34.9 84.2z"/></clipPath><clipPath id="l"><path d="m84.1 93.3c-22.3 22.4-52.5 34.9-84.1 34.8v-59.5c32.8 0 59.4-26.6 59.5-59.5h59.5c0 31.6-12.5 61.9-34.9 84.2z"/></clipPath><clipPath id="m"><path d="m84.1 93.3c-22.3 22.4-52.5 34.9-84.1 34.8v-59.5c32.8 0 59.4-26.6 59.5-59.5h59.5c0 31.6-12.5 61.9-34.9 84.2z"/></clipPath><clipPath id="n"><path d="m84.1 93.3c-22.3 22.4-52.5 34.9-84.1 34.8v-59.5c32.8 0 59.4-26.6 59.5-59.5h59.5c0 31.6-12.5 61.9-34.9 84.2z"/></clipPath><clipPath id="o"><path d="m84.1 93.3c-22.3 22.4-52.5 34.9-84.1 34.8v-59.5c32.8 0 59.4-26.6 59.5-59.5h59.5c0 31.6-12.5 61.9-34.9 84.2z"/></clipPath><clipPath id="p"><path d="m84.1 93.3c-22.3 22.4-52.5 34.9-84.1 34.8v-59.5c32.8 0 59.4-26.6 59.5-59.5h59.5c0 31.6-12.5 61.9-34.9 84.2z"/></clipPath><g fill="#00d1ff"><path d="m220.5 14.3c-9.8-9.6-22.5-14.3-35.2-14.3-13.1 0-26.1 5.1-36 15.1l-23.5-5.9v118.9h59.5v-27.4c13.5 0 26.5-5.5 36-15.2 19.4-19.8 19-51.8-.8-71.2zm-.6 69.8c-9.1 9.3-21.7 14.6-34.6 14.6h-2v2 25.4h-55.5v-114.3l21 5.3 1.1.3.8-.8c9.2-9.5 21.5-14.6 34.6-14.6 12.7 0 24.7 4.8 33.8 13.7 19.1 18.7 19.4 49.3.8 68.4z"/><path d="m185.3 7c11.4 0 22.2 4.4 30.3 12.3 17.1 16.7 17.4 44.2.7 61.3-8.2 8.3-19.5 13.1-31 13.1h-5-2v2 25.4h-45.5v-102.9l17.6 4.4 1.1.3.8-.8 2-2c8.2-8.5 19.3-13.1 31-13.1m0-2c-12.3 0-23.8 4.8-32.5 13.6l-2 2-20.1-5v107.5h49.5v-27.4h5c12.1 0 23.9-5 32.4-13.7 17.5-17.8 17.2-46.6-.7-64.1-8.4-8.4-19.6-12.9-31.6-12.9z"/><path d="m185.3 12c10.1 0 19.6 3.9 26.8 10.9 15.1 14.8 15.4 39.1.6 54.2-7.2 7.4-17.2 11.6-27.4 11.6h-10-2v2 25.4h-35.5v-91.5l14.1 3.5 1.1.3.8-.8 4-4.1c7.4-7.4 17.1-11.5 27.5-11.5m0-2c-11 0-21.2 4.3-28.9 12.1l-4 4.1-16.6-4.2v96.1h39.5v-27.4h10c10.7 0 21.3-4.4 28.9-12.2 15.6-15.9 15.3-41.5-.7-57.1-7.6-7.4-17.6-11.4-28.2-11.4z"/><path d="m185.3 17c8.8 0 17 3.4 23.3 9.5 13.2 12.9 13.4 34 .6 47.2-6.3 6.4-15 10.1-23.9 10.1h-15-2v2 25.4h-25.5v-80.2l10.7 2.7 1.1.3.8-.8 6-6.1c6.4-6.6 14.9-10.1 23.9-10.1m0-2c-9.6 0-18.6 3.8-25.3 10.6l-6 6.1-13.2-3.3v84.7h29.5v-27.4h15c9.4 0 18.6-3.9 25.3-10.7 13.6-13.9 13.4-36.3-.6-50-6.6-6.5-15.4-10-24.7-10z"/><path d="m185.3 22c7.5 0 14.5 2.9 19.8 8.1 11.2 11 11.4 28.9.5 40.1-5.4 5.5-12.7 8.6-20.3 8.6h-20-2v2 25.4h-15.5v-68.8l7.3 1.8 1.1.3.8-.8 8-8.2c5.4-5.5 12.6-8.5 20.3-8.5m0-2c-8.2 0-16 3.2-21.7 9.1l-8 8.2-9.8-2.4v73.3h19.5v-27.5h20c8.1 0 16-3.4 21.7-9.2 11.7-11.9 11.5-31.2-.5-42.9-5.7-5.6-13.2-8.6-21.2-8.6z"/><path d="m185.3 27c6.1 0 11.9 2.4 16.3 6.6 9.2 9 9.4 23.8.4 33-4.4 4.5-10.5 7.1-16.7 7.1h-25-2v2 25.4h-5.5v-57.3l3.8 1 1.1.3.8-.8 10-10.2c4.5-4.6 10.5-7.1 16.8-7.1m0-2c-6.9 0-13.3 2.7-18.2 7.6l-10 10.2-6.3-1.6v61.8h9.5v-27.3h25c6.7 0 13.4-2.8 18.1-7.7 9.8-10 9.6-26-.4-35.8-4.7-4.7-11-7.2-17.7-7.2z"/><path d="m185.3 32c4.8 0 9.4 1.8 12.8 5.2 7.2 7.1 7.4 18.7.3 25.9-3.5 3.6-8.3 5.6-13.1 5.6h-27.5v-18.5l.4.1 1.1.3.8-.8 12-12.3c3.6-3.6 8.2-5.5 13.2-5.5m0-2c-5.5 0-10.7 2.2-14.6 6.1l-12 12.3-2.9-.7v23h29.5c5.4 0 10.7-2.3 14.6-6.2 7.8-8 7.7-20.9-.4-28.8-3.8-3.7-8.8-5.7-14.2-5.7z"/><path d="m185.3 37c3.5 0 6.8 1.3 9.3 3.8 5.3 5.2 5.4 13.6.3 18.9-2.5 2.6-6 4.1-9.6 4.1h-22.5v-9.5l12.9-13.3c2.6-2.6 6-4 9.6-4m0-2c-4.2 0-8.1 1.6-11 4.6l-13.5 13.8v12.3h24.5c4.1 0 8.1-1.7 11-4.7 5.9-6 5.8-15.8-.3-21.7-2.8-2.8-6.6-4.3-10.7-4.3z"/><path d="m185.3 42c2.2 0 4.2.8 5.8 2.3 3.3 3.2 3.4 8.5.2 11.8-1.6 1.6-3.8 2.6-6 2.6h-17.5v-2.5l11.5-11.7c1.6-1.6 3.7-2.5 6-2.5m0-2c-2.8 0-5.5 1.1-7.5 3.1l-12.1 12.3v5.3h19.5c2.7 0 5.4-1.2 7.4-3.2 4-4.1 3.9-10.6-.2-14.6-1.8-1.9-4.4-2.9-7.1-2.9z"/><path d="m185.3 47c.9 0 1.7.3 2.3.9 1.3 1.3 1.4 3.4.1 4.7-.7.7-1.6 1.1-2.4 1.1h-8l5.6-5.7c.6-.7 1.5-1 2.4-1m0-2c-1.5 0-2.8.6-3.9 1.6l-8.9 9.1h12.8c1.4 0 2.8-.6 3.9-1.7 2-2.1 2-5.5-.1-7.6-1.1-.9-2.4-1.4-3.8-1.4z"/><path d="m354.4 71.1h-5.6-5.6-5.6-5.6-5.6-5.6-5.6-5.6-8.6v-9-5.9-5.9-5.9-5.9-5.9-5.9-5.7-5.9-5.9h-57v118.9h116v-57zm-47.2 2v4.3h-12.9v-13.3h4.3v7 2h2zm-14.9-11v17.3h16.9v-6.3h3.6v9.7h-24v-24.6h9.7v3.9zm-5.4-5.9v28.6h28v-11.7h3.6v15.1h-35v-35.9h15.1v3.9zm-5.4-5.9v39.9h39v-17.1h3.6v20.5h-46.1v-47.1h20.5v3.9h-17zm-5.4-5.8v51.2h50.1v-22.6h3.6v25.9h-57.1v-58.4h25.9v3.9zm-5.4-5.9v62.4h61.1v-27.9h3.6v31.4h-68.2v-69.8h31.4v3.9zm-5.5-5.9v73.7h72.2v-33.3h3.6v36.8h-79.2v-81h36.8v3.9h-33.4zm-5.4-5.9v85h83.2v-38.7h3.6v42.2h-90.3v-92.3h42.2v3.9h-38.7zm-5.4-5.8v96.3h94.3v-44.2h3.6v47.6h-101.3v-103.6h47.6v3.9zm103.6 105.1h-112.4v-114.9h53v3.9h-49.6v107.6h105.3v-49.6h3.6v53z"/></g><g clip-path="url(#a)"><path d="m59.5-6.4c41.3 0 75 33.6 75 75 0 41.3-33.6 75-75 75s-75-33.6-75-75c0-41.3 33.7-75 75-75m0-2c-42.4 0-77 34.5-77 77s34.5 77 77 77 77-34.5 77-77-34.6-77-77-77z" fill="#00d1ff"/></g><g clip-path="url(#b)"><path d="m59.5-1.4c38.6 0 70 31.4 70 70s-31.4 70-70 70-70-31.4-70-70 31.4-70 70-70m0-2c-39.7 0-72 32.3-72 72s32.3 72 72 72 72-32.3 72-72-32.3-72-72-72z" fill="#00d1ff"/></g><g clip-path="url(#c)"><path d="m59.5 3.6c35.8 0 65 29.1 65 65 0 35.8-29.1 65-65 65s-65-29.1-65-65c0-35.8 29.2-65 65-65m0-2c-36.9 0-67 30-67 67 0 36.9 30 67 67 67s67-30 67-67c0-36.9-30.1-67-67-67z" fill="#00d1ff"/></g><g clip-path="url(#d)"><path d="m59.5 8.6c33.1 0 60 26.9 60 60s-26.9 60-60 60-60-26.9-60-60 26.9-60 60-60m0-2c-34.2 0-62 27.8-62 62s27.8 62 62 62 62-27.8 62-62-27.8-62-62-62z" fill="#00d1ff"/></g><g clip-path="url(#e)"><path d="m59.5 13.6c30.3 0 55 24.7 55 55s-24.7 55-55 55-55-24.7-55-55 24.7-55 55-55m0-2c-31.4 0-57 25.6-57 57s25.6 57 57 57 57-25.5 57-57c0-31.4-25.6-57-57-57z" fill="#00d1ff"/></g><g clip-path="url(#f)"><path d="m59.5 18.6c27.5 0 50 22.4 50 50 0 27.5-22.4 50-50 50s-50-22.4-50-50c0-27.5 22.5-50 50-50m0-2c-28.6 0-52 23.3-52 52s23.3 52 52 52 52-23.3 52-52-23.4-52-52-52z" fill="#00d1ff"/></g><g clip-path="url(#g)"><path d="m59.5 23.6c24.8 0 45 20.2 45 45s-20.2 45-45 45-45-20.2-45-45 20.2-45 45-45m0-2c-25.9 0-47 21.1-47 47s21.1 47 47 47 47-21.1 47-47-21.1-47-47-47z" fill="#00d1ff"/></g><g clip-path="url(#h)"><path d="m59.5 28.6c22 0 40 17.9 40 40 0 22-17.9 40-40 40s-40-17.9-40-40c0-22 18-40 40-40m0-2c-23.1 0-42 18.8-42 42 0 23.1 18.8 42 42 42s42-18.8 42-42c0-23.1-18.9-42-42-42z" fill="#00d1ff"/></g><g clip-path="url(#i)"><path d="m59.5 33.6c19.3 0 35 15.7 35 35s-15.7 35-35 35-35-15.7-35-35 15.7-35 35-35m0-2c-20.4 0-37 16.6-37 37s16.6 37 37 37 37-16.6 37-37-16.6-37-37-37z" fill="#00d1ff"/></g><g clip-path="url(#j)"><path d="m59.5 38.6c16.5 0 30 13.4 30 30 0 16.5-13.4 30-30 30s-30-13.4-30-30c0-16.5 13.5-30 30-30m0-2c-17.6 0-32 14.3-32 32 0 17.6 14.3 32 32 32s32-14.3 32-32c0-17.6-14.4-32-32-32z" fill="#00d1ff"/></g><g clip-path="url(#k)"><path d="m59.5 43.6c13.8 0 25 11.2 25 25s-11.2 25-25 25-25-11.2-25-25 11.2-25 25-25m0-2c-14.9 0-27 12.1-27 27s12.1 27 27 27 27-12.1 27-27-12.1-27-27-27z" fill="#00d1ff"/></g><g clip-path="url(#l)"><path d="m59.5 48.6c11 0 20 9 20 20s-9 20-20 20-20-9-20-20 9-20 20-20m0-2c-12.1 0-22 9.8-22 22s9.8 22 22 22 22-9.8 22-22-9.9-22-22-22z" fill="#00d1ff"/></g><g clip-path="url(#m)"><path d="m59.5 53.6c8.2 0 15 6.7 15 15 0 8.2-6.7 15-15 15s-15-6.7-15-15c0-8.2 6.8-15 15-15m0-2c-9.3 0-17 7.6-17 17 0 9.3 7.6 17 17 17s17-7.6 17-17c0-9.3-7.7-17-17-17z" fill="#00d1ff"/></g><g clip-path="url(#n)"><path d="m59.5 58.6c5.5 0 10 4.5 10 10s-4.5 10-10 10-10-4.5-10-10 4.5-10 10-10m0-2c-6.6 0-12 5.4-12 12s5.4 12 12 12 12-5.4 12-12-5.4-12-12-12z" fill="#00d1ff"/></g><g clip-path="url(#o)"><path d="m59.5 63.6c2.7 0 5 2.2 5 5s-2.2 5-5 5-5-2.2-5-5 2.3-5 5-5m0-2c-3.8 0-7 3.1-7 7 0 3.8 3.1 7 7 7s7-3.1 7-7c0-3.8-3.2-7-7-7z" fill="#00d1ff"/></g><g clip-path="url(#p)"><path d="m117 11.1c-.2 14.8-3.2 29.2-8.9 42.8-5.9 14.3-14.5 27.1-25.4 38s-23.6 19.4-37.7 25.3c-13.7 5.7-28.1 8.7-42.9 8.9v-55.5c32.2-1 58.3-27.1 59.5-59.5zm2-2h-59.5c-.1 32.9-26.7 59.5-59.5 59.5v59.5h.4c31.5 0 61.5-12.5 83.7-34.8 22.4-22.3 34.9-52.6 34.9-84.2z" fill="#00d1ff"/></g></svg>