<svg enable-background="new 0 0 360 128.1" viewBox="0 0 360 128.1" xmlns="http://www.w3.org/2000/svg" xmlns:xlink="http://www.w3.org/1999/xlink"><clipPath id="a"><path d="m84.1 93.3c-22.3 22.4-52.5 34.9-84.1 34.8v-59.5c32.8 0 59.5-26.7 59.5-59.5h59.5c0 31.6-12.5 61.9-34.9 84.2zm101.2 7.4v27.4h-59.5v-118.9l23.5 5.9c19.5-19.9 51.3-20.2 71.2-.7s20.2 51.3.7 71.2c-9.5 9.6-22.4 15.1-35.9 15.1zm174.7 27.4h-116.4v-118.9h57v61.9h59.4z"/></clipPath><linearGradient id="b" gradientUnits="userSpaceOnUse" x1="254.5495" x2="421.2099" y1="64.05" y2="64.05"><stop offset="0" stop-color="#dadcee" stop-opacity=".3"/><stop offset=".1596" stop-color="#dad3e8" stop-opacity=".4118"/><stop offset=".68" stop-color="#dbbbd8" stop-opacity=".776"/><stop offset="1" stop-color="#dbb2d2"/></linearGradient><linearGradient id="c" gradientUnits="userSpaceOnUse" x1="149.2964" x2="315.9568" y1="64.05" y2="64.05"><stop offset="0" stop-color="#f3b54c" stop-opacity=".9"/><stop offset=".2402" stop-color="#efac47" stop-opacity=".924"/><stop offset=".6306" stop-color="#e39438" stop-opacity=".9631"/><stop offset="1" stop-color="#d57726"/></linearGradient><linearGradient id="d" gradientUnits="userSpaceOnUse" x1="44.0432" x2="210.7036" y1="64.05" y2="64.05"><stop offset="0" stop-color="#2b80b0" stop-opacity=".9"/><stop offset=".236" stop-color="#2b7dac" stop-opacity=".9236"/><stop offset=".4805" stop-color="#2b729f" stop-opacity=".948"/><stop offset=".7289" stop-color="#2c618b" stop-opacity=".9729"/><stop offset=".9785" stop-color="#2c496e" stop-opacity=".9979"/><stop offset="1" stop-color="#2c476b"/></linearGradient><linearGradient id="e" gradientUnits="userSpaceOnUse" x1="-61.2099" x2="105.4505" y1="64.05" y2="64.05"><stop offset="0" stop-color="#5bbca3"/><stop offset="1" stop-color="#95d0bd" stop-opacity=".9"/></linearGradient><g clip-path="url(#a)"><path d="m254.5 64c0-12.3 2-23.6 6.1-33.9s9.8-19.2 17.1-26.8c7.3-7.5 16-13.4 26.3-17.6 10.2-4.2 21.5-6.4 33.8-6.4s23.6 2.1 33.8 6.4c10.2 4.2 19 10.1 26.3 17.6s13 16.4 17.1 26.8c4.1 10.3 6.1 21.6 6.1 33.9s-2 23.6-6.1 34-9.8 19.4-17.1 26.9-16 13.4-26.3 17.5c-10.2 4.2-21.5 6.3-33.8 6.3s-23.6-2.1-33.8-6.3-19-10-26.3-17.5-13-16.5-17.1-26.9c-4-10.3-6.1-21.7-6.1-34z" fill="url(#b)"/><path d="m149.3 64c0-12.3 2-23.6 6.1-33.9s9.8-19.2 17.1-26.8 16-13.4 26.3-17.6c10.2-4.2 21.5-6.4 33.8-6.4s23.6 2.1 33.8 6.4c10.2 4.2 19 10.1 26.3 17.6s13 16.4 17.1 26.8c4.1 10.3 6.1 21.6 6.1 33.9s-2 23.6-6.1 34-9.8 19.4-17.1 26.9-16 13.4-26.3 17.5c-10.2 4.2-21.5 6.3-33.8 6.3s-23.6-2.1-33.8-6.3-19-10-26.3-17.5-13-16.5-17.1-26.9c-4.1-10.3-6.1-21.7-6.1-34z" fill="url(#c)"/><path d="m44 64c0-12.3 2-23.6 6.1-33.9s9.9-19.2 17.2-26.7 16-13.4 26.3-17.6c10.2-4.2 21.5-6.4 33.8-6.4s23.6 2.1 33.8 6.4c10.2 4.2 19 10.1 26.3 17.6s13 16.4 17.1 26.8c4.1 10.3 6.1 21.6 6.1 33.9s-2 23.6-6.1 34-9.8 19.4-17.1 26.9-16 13.4-26.3 17.5c-10.2 4.2-21.5 6.3-33.8 6.3s-23.6-2.1-33.8-6.3-19-10-26.3-17.5-13-16.5-17.1-26.9-6.2-21.8-6.2-34.1z" fill="url(#d)"/><path d="m-61.2 64c0-12.3 2-23.6 6.1-33.9s9.8-19.2 17.1-26.7 16-13.4 26.3-17.6c10.2-4.2 21.5-6.4 33.8-6.4s23.6 2.1 33.8 6.4c10.3 4.2 19 10.1 26.3 17.6s13 16.4 17.1 26.8c4.1 10.3 6.1 21.6 6.1 33.9s-2 23.6-6.1 34-9.8 19.4-17.1 26.9-16 13.4-26.3 17.5c-10.2 4.2-21.5 6.3-33.8 6.3s-23.6-2.1-33.8-6.3-19-10-26.3-17.5-13-16.5-17.1-26.9-6.1-21.8-6.1-34.1z" fill="url(#e)"/></g></svg>