<svg enable-background="new 0 0 360 128.1" viewBox="0 0 360 128.1" xmlns="http://www.w3.org/2000/svg" xmlns:xlink="http://www.w3.org/1999/xlink"><linearGradient id="a"><stop offset="0" stop-color="#4cdcfc"/><stop offset=".1034" stop-color="#43dbfc"/><stop offset=".272" stop-color="#2bd7fd"/><stop offset=".4837" stop-color="#03d1ff"/><stop offset=".5" stop-color="#00d1ff"/><stop offset="1" stop-color="#00acd4"/></linearGradient><linearGradient id="b" gradientTransform="matrix(1 0 0 -1 0 130)" gradientUnits="userSpaceOnUse" x1="27.1308" x2="41.2917" xlink:href="#a" y1="78.2441" y2="53.7169"/><linearGradient id="c"><stop offset="0" stop-color="#c7c7c7"/><stop offset=".1905" stop-color="#bebebe"/><stop offset=".5" stop-color="#a6a6a6"/><stop offset="1" stop-color="#737373"/></linearGradient><linearGradient id="d" gradientTransform="matrix(1 0 0 -1 0 130)" gradientUnits="userSpaceOnUse" x1="41.2521" x2="27.0912" xlink:href="#c" y1="103.5855" y2="128.1128"/><linearGradient id="e" gradientTransform="matrix(1 0 0 -1 0 130)" gradientUnits="userSpaceOnUse" x1="77.2988" x2="91.4596" xlink:href="#a" y1="128.0996" y2="103.5723"/><linearGradient id="f" gradientTransform="matrix(1 0 0 -1 0 130)" gradientUnits="userSpaceOnUse" x1="77.3512" x2="91.512" xlink:href="#a" y1="78.2089" y2="53.6817"/><linearGradient id="g" gradientTransform="matrix(1 0 0 -1 0 130)" gradientUnits="userSpaceOnUse" x1="41.3012" x2="27.1403" xlink:href="#c" y1="3.8004" y2="28.3277"/><linearGradient id="h" gradientTransform="matrix(1 0 0 -1 0 130)" gradientUnits="userSpaceOnUse" x1="91.5012" x2="77.3404" xlink:href="#c" y1="3.8004" y2="28.3277"/><linearGradient id="i" gradientTransform="matrix(1 0 0 -1 0 130)" gradientUnits="userSpaceOnUse" x1="147.8311" x2="161.9919" xlink:href="#a" y1="78.2437" y2="53.7165"/><linearGradient id="j" gradientTransform="matrix(1 0 0 -1 0 130)" gradientUnits="userSpaceOnUse" x1="147.7988" x2="161.9596" xlink:href="#a" y1="128.0996" y2="103.5723"/><linearGradient id="k" gradientTransform="matrix(1 0 0 -1 0 130)" gradientUnits="userSpaceOnUse" x1="197.9988" x2="212.1596" xlink:href="#a" y1="128.0996" y2="103.5723"/><linearGradient id="l" gradientTransform="matrix(1 0 0 -1 0 130)" gradientUnits="userSpaceOnUse" x1="147.8274" x2="161.9882" xlink:href="#a" y1="28.3501" y2="3.8228"/><linearGradient id="m" gradientTransform="matrix(1 0 0 -1 0 130)" gradientUnits="userSpaceOnUse" x1="212.2012" x2="198.0404" xlink:href="#c" y1="53.7004" y2="78.2276"/><linearGradient id="n" gradientTransform="matrix(1 0 0 -1 0 130)" gradientUnits="userSpaceOnUse" x1="212.2012" x2="198.0404" xlink:href="#c" y1="3.8004" y2="28.3277"/><linearGradient id="o" gradientTransform="matrix(1 0 0 -1 0 130)" gradientUnits="userSpaceOnUse" x1="268.5313" x2="282.6921" xlink:href="#a" y1="78.2433" y2="53.7161"/><linearGradient id="p" gradientTransform="matrix(1 0 0 -1 0 130)" gradientUnits="userSpaceOnUse" x1="268.4988" x2="282.6596" xlink:href="#a" y1="128.0996" y2="103.5723"/><linearGradient id="q" gradientTransform="matrix(1 0 0 -1 0 130)" gradientUnits="userSpaceOnUse" x1="332.8728" x2="318.7119" xlink:href="#c" y1="103.5495" y2="128.0768"/><linearGradient id="r" gradientTransform="matrix(1 0 0 -1 0 130)" gradientUnits="userSpaceOnUse" x1="268.5276" x2="282.6884" xlink:href="#a" y1="28.3497" y2="3.8224"/><linearGradient id="s" gradientTransform="matrix(1 0 0 -1 0 130)" gradientUnits="userSpaceOnUse" x1="332.9012" x2="318.7403" xlink:href="#c" y1="53.7004" y2="78.2276"/><linearGradient id="t" gradientTransform="matrix(1 0 0 -1 0 130)" gradientUnits="userSpaceOnUse" x1="332.9012" x2="318.7403" xlink:href="#c" y1="3.8004" y2="28.3277"/><path d="m0 0h360v128.1h-360z" fill="#fff"/><circle cx="34.2" cy="64" fill="url(#b)" r="14.2"/><circle cx="34.2" cy="14.2" fill="url(#d)" r="14.2"/><circle cx="84.4" cy="14.2" fill="url(#e)" r="14.2"/><circle cx="84.4" cy="64" fill="url(#f)" r="14.2"/><circle cx="34.2" cy="113.9" fill="url(#g)" r="14.2"/><circle cx="84.4" cy="113.9" fill="url(#h)" r="14.2"/><circle cx="154.9" cy="64" fill="url(#i)" r="14.2"/><circle cx="154.9" cy="14.2" fill="url(#j)" r="14.2"/><circle cx="205.1" cy="14.2" fill="url(#k)" r="14.2"/><circle cx="154.9" cy="113.9" fill="url(#l)" r="14.2"/><circle cx="205.1" cy="64" fill="url(#m)" r="14.2"/><circle cx="205.1" cy="113.9" fill="url(#n)" r="14.2"/><circle cx="275.6" cy="64" fill="url(#o)" r="14.2"/><circle cx="275.6" cy="14.2" fill="url(#p)" r="14.2"/><circle cx="325.8" cy="14.2" fill="url(#q)" r="14.2"/><circle cx="275.6" cy="113.9" fill="url(#r)" r="14.2"/><circle cx="325.8" cy="64" fill="url(#s)" r="14.2"/><circle cx="325.8" cy="113.9" fill="url(#t)" r="14.2"/></svg>