<svg enable-background="new 0 0 360 128.1" viewBox="0 0 360 128.1" xmlns="http://www.w3.org/2000/svg" xmlns:xlink="http://www.w3.org/1999/xlink"><clipPath id="a"><path d="m84.1 93.3c-22.3 22.4-52.5 34.9-84.1 34.8v-59.5c32.8 0 59.4-26.6 59.5-59.5h59.5c0 31.6-12.5 61.9-34.9 84.2zm101.2 7.4v27.4h-59.5v-118.9l23.5 5.9c19.5-19.9 51.4-20.2 71.2-.8s20.2 51.4.8 71.2c-9.5 9.7-22.5 15.2-36 15.2zm174.7 27.4h-116.4v-118.9h57v61.9h59.4z"/></clipPath><clipPath id="b"><path d="m84.1 93.3c-22.3 22.4-52.5 34.9-84.1 34.8v-59.5c32.8 0 59.4-26.6 59.5-59.5h59.5c0 31.6-12.5 61.9-34.9 84.2zm101.2 7.4v27.4h-59.5v-118.9l23.5 5.9c19.5-19.9 51.4-20.2 71.2-.8s20.2 51.4.8 71.2c-9.5 9.7-22.5 15.2-36 15.2zm174.7 27.4h-116.4v-118.9h57v61.9h59.4z"/></clipPath><clipPath id="c"><path d="m84.1 93.3c-22.3 22.4-52.5 34.9-84.1 34.8v-59.5c32.8 0 59.4-26.6 59.5-59.5h59.5c0 31.6-12.5 61.9-34.9 84.2zm101.2 7.4v27.4h-59.5v-118.9l23.5 5.9c19.5-19.9 51.4-20.2 71.2-.8s20.2 51.4.8 71.2c-9.5 9.7-22.5 15.2-36 15.2zm174.7 27.4h-116.4v-118.9h57v61.9h59.4z"/></clipPath><clipPath id="d"><path d="m84.1 93.3c-22.3 22.4-52.5 34.9-84.1 34.8v-59.5c32.8 0 59.4-26.6 59.5-59.5h59.5c0 31.6-12.5 61.9-34.9 84.2zm101.2 7.4v27.4h-59.5v-118.9l23.5 5.9c19.5-19.9 51.4-20.2 71.2-.8s20.2 51.4.8 71.2c-9.5 9.7-22.5 15.2-36 15.2zm174.7 27.4h-116.4v-118.9h57v61.9h59.4z"/></clipPath><clipPath id="e"><path d="m84.1 93.3c-22.3 22.4-52.5 34.9-84.1 34.8v-59.5c32.8 0 59.4-26.6 59.5-59.5h59.5c0 31.6-12.5 61.9-34.9 84.2zm101.2 7.4v27.4h-59.5v-118.9l23.5 5.9c19.5-19.9 51.4-20.2 71.2-.8s20.2 51.4.8 71.2c-9.5 9.7-22.5 15.2-36 15.2zm174.7 27.4h-116.4v-118.9h57v61.9h59.4z"/></clipPath><clipPath id="f"><path d="m84.1 93.3c-22.3 22.4-52.5 34.9-84.1 34.8v-59.5c32.8 0 59.4-26.6 59.5-59.5h59.5c0 31.6-12.5 61.9-34.9 84.2zm101.2 7.4v27.4h-59.5v-118.9l23.5 5.9c19.5-19.9 51.4-20.2 71.2-.8s20.2 51.4.8 71.2c-9.5 9.7-22.5 15.2-36 15.2zm174.7 27.4h-116.4v-118.9h57v61.9h59.4z"/></clipPath><clipPath id="g"><path d="m84.1 93.3c-22.3 22.4-52.5 34.9-84.1 34.8v-59.5c32.8 0 59.4-26.6 59.5-59.5h59.5c0 31.6-12.5 61.9-34.9 84.2zm101.2 7.4v27.4h-59.5v-118.9l23.5 5.9c19.5-19.9 51.4-20.2 71.2-.8s20.2 51.4.8 71.2c-9.5 9.7-22.5 15.2-36 15.2zm174.7 27.4h-116.4v-118.9h57v61.9h59.4z"/></clipPath><clipPath id="h"><path d="m84.1 93.3c-22.3 22.4-52.5 34.9-84.1 34.8v-59.5c32.8 0 59.4-26.6 59.5-59.5h59.5c0 31.6-12.5 61.9-34.9 84.2zm101.2 7.4v27.4h-59.5v-118.9l23.5 5.9c19.5-19.9 51.4-20.2 71.2-.8s20.2 51.4.8 71.2c-9.5 9.7-22.5 15.2-36 15.2zm174.7 27.4h-116.4v-118.9h57v61.9h59.4z"/></clipPath><clipPath id="i"><path d="m84.1 93.3c-22.3 22.4-52.5 34.9-84.1 34.8v-59.5c32.8 0 59.4-26.6 59.5-59.5h59.5c0 31.6-12.5 61.9-34.9 84.2zm101.2 7.4v27.4h-59.5v-118.9l23.5 5.9c19.5-19.9 51.4-20.2 71.2-.8s20.2 51.4.8 71.2c-9.5 9.7-22.5 15.2-36 15.2zm174.7 27.4h-116.4v-118.9h57v61.9h59.4z"/></clipPath><clipPath id="j"><path d="m84.1 93.3c-22.3 22.4-52.5 34.9-84.1 34.8v-59.5c32.8 0 59.4-26.6 59.5-59.5h59.5c0 31.6-12.5 61.9-34.9 84.2zm101.2 7.4v27.4h-59.5v-118.9l23.5 5.9c19.5-19.9 51.4-20.2 71.2-.8s20.2 51.4.8 71.2c-9.5 9.7-22.5 15.2-36 15.2zm174.7 27.4h-116.4v-118.9h57v61.9h59.4z"/></clipPath><clipPath id="k"><path d="m84.1 93.3c-22.3 22.4-52.5 34.9-84.1 34.8v-59.5c32.8 0 59.4-26.6 59.5-59.5h59.5c0 31.6-12.5 61.9-34.9 84.2zm101.2 7.4v27.4h-59.5v-118.9l23.5 5.9c19.5-19.9 51.4-20.2 71.2-.8s20.2 51.4.8 71.2c-9.5 9.7-22.5 15.2-36 15.2zm174.7 27.4h-116.4v-118.9h57v61.9h59.4z"/></clipPath><clipPath id="l"><path d="m84.1 93.3c-22.3 22.4-52.5 34.9-84.1 34.8v-59.5c32.8 0 59.4-26.6 59.5-59.5h59.5c0 31.6-12.5 61.9-34.9 84.2zm101.2 7.4v27.4h-59.5v-118.9l23.5 5.9c19.5-19.9 51.4-20.2 71.2-.8s20.2 51.4.8 71.2c-9.5 9.7-22.5 15.2-36 15.2zm174.7 27.4h-116.4v-118.9h57v61.9h59.4z"/></clipPath><clipPath id="m"><path d="m84.1 93.3c-22.3 22.4-52.5 34.9-84.1 34.8v-59.5c32.8 0 59.4-26.6 59.5-59.5h59.5c0 31.6-12.5 61.9-34.9 84.2zm101.2 7.4v27.4h-59.5v-118.9l23.5 5.9c19.5-19.9 51.4-20.2 71.2-.8s20.2 51.4.8 71.2c-9.5 9.7-22.5 15.2-36 15.2zm174.7 27.4h-116.4v-118.9h57v61.9h59.4z"/></clipPath><clipPath id="n"><path d="m84.1 93.3c-22.3 22.4-52.5 34.9-84.1 34.8v-59.5c32.8 0 59.4-26.6 59.5-59.5h59.5c0 31.6-12.5 61.9-34.9 84.2zm101.2 7.4v27.4h-59.5v-118.9l23.5 5.9c19.5-19.9 51.4-20.2 71.2-.8s20.2 51.4.8 71.2c-9.5 9.7-22.5 15.2-36 15.2zm174.7 27.4h-116.4v-118.9h57v61.9h59.4z"/></clipPath><clipPath id="o"><path d="m84.1 93.3c-22.3 22.4-52.5 34.9-84.1 34.8v-59.5c32.8 0 59.4-26.6 59.5-59.5h59.5c0 31.6-12.5 61.9-34.9 84.2zm101.2 7.4v27.4h-59.5v-118.9l23.5 5.9c19.5-19.9 51.4-20.2 71.2-.8s20.2 51.4.8 71.2c-9.5 9.7-22.5 15.2-36 15.2zm174.7 27.4h-116.4v-118.9h57v61.9h59.4z"/></clipPath><clipPath id="p"><path d="m84.1 93.3c-22.3 22.4-52.5 34.9-84.1 34.8v-59.5c32.8 0 59.4-26.6 59.5-59.5h59.5c0 31.6-12.5 61.9-34.9 84.2zm101.2 7.4v27.4h-59.5v-118.9l23.5 5.9c19.5-19.9 51.4-20.2 71.2-.8s20.2 51.4.8 71.2c-9.5 9.7-22.5 15.2-36 15.2zm174.7 27.4h-116.4v-118.9h57v61.9h59.4z"/></clipPath><clipPath id="q"><path d="m84.1 93.3c-22.3 22.4-52.5 34.9-84.1 34.8v-59.5c32.8 0 59.4-26.6 59.5-59.5h59.5c0 31.6-12.5 61.9-34.9 84.2zm101.2 7.4v27.4h-59.5v-118.9l23.5 5.9c19.5-19.9 51.4-20.2 71.2-.8s20.2 51.4.8 71.2c-9.5 9.7-22.5 15.2-36 15.2zm174.7 27.4h-116.4v-118.9h57v61.9h59.4z"/></clipPath><clipPath id="r"><path d="m84.1 93.3c-22.3 22.4-52.5 34.9-84.1 34.8v-59.5c32.8 0 59.4-26.6 59.5-59.5h59.5c0 31.6-12.5 61.9-34.9 84.2zm101.2 7.4v27.4h-59.5v-118.9l23.5 5.9c19.5-19.9 51.4-20.2 71.2-.8s20.2 51.4.8 71.2c-9.5 9.7-22.5 15.2-36 15.2zm174.7 27.4h-116.4v-118.9h57v61.9h59.4z"/></clipPath><clipPath id="s"><path d="m84.1 93.3c-22.3 22.4-52.5 34.9-84.1 34.8v-59.5c32.8 0 59.4-26.6 59.5-59.5h59.5c0 31.6-12.5 61.9-34.9 84.2zm101.2 7.4v27.4h-59.5v-118.9l23.5 5.9c19.5-19.9 51.4-20.2 71.2-.8s20.2 51.4.8 71.2c-9.5 9.7-22.5 15.2-36 15.2zm174.7 27.4h-116.4v-118.9h57v61.9h59.4z"/></clipPath><clipPath id="t"><path d="m84.1 93.3c-22.3 22.4-52.5 34.9-84.1 34.8v-59.5c32.8 0 59.4-26.6 59.5-59.5h59.5c0 31.6-12.5 61.9-34.9 84.2zm101.2 7.4v27.4h-59.5v-118.9l23.5 5.9c19.5-19.9 51.4-20.2 71.2-.8s20.2 51.4.8 71.2c-9.5 9.7-22.5 15.2-36 15.2zm174.7 27.4h-116.4v-118.9h57v61.9h59.4z"/></clipPath><g clip-path="url(#a)" fill="#666"><path d="m0 1h360v3h-360z"/><path d="m0 7.9h360v3h-360z"/><path d="m0 14.9h360v3h-360z"/><path d="m0 21.8h360v3h-360z"/><path d="m0 28.8h360v3h-360z"/><path d="m0 35.8h360v3h-360z"/><path d="m0 42.7h360v3h-360z"/><path d="m0 49.7h360v3h-360z"/><path d="m0 56.6h360v3h-360z"/><path d="m0 63.6h360v3h-360z"/><path d="m0 70.6h360v3h-360z"/><path d="m0 77.5h360v3h-360z"/><path d="m0 84.5h360v3h-360z"/><path d="m0 91.4h360v3h-360z"/><path d="m0 98.4h360v3h-360z"/><path d="m0 105.4h360v3h-360z"/><path d="m0 112.3h360v3h-360z"/><path d="m0 119.3h360v3h-360z"/><path d="m0 126.3h360v3h-360z"/></g><g fill="none"><path clip-path="url(#b)" d="m84.1 93.3c-22.3 22.4-52.5 34.9-84.1 34.8v-59.5c32.8 0 59.4-26.6 59.5-59.5h59.5c0 31.6-12.5 61.9-34.9 84.2zm101.2 7.4v27.4h-59.5v-118.9l23.5 5.9c19.5-19.9 51.4-20.2 71.2-.8s20.2 51.4.8 71.2c-9.5 9.7-22.5 15.2-36 15.2zm174.7 27.4h-116.4v-118.9h57v61.9h59.4z"/><path clip-path="url(#c)" d="m84.1 93.3c-22.3 22.4-52.5 34.9-84.1 34.8v-59.5c32.8 0 59.4-26.6 59.5-59.5h59.5c0 31.6-12.5 61.9-34.9 84.2zm101.2 7.4v27.4h-59.5v-118.9l23.5 5.9c19.5-19.9 51.4-20.2 71.2-.8s20.2 51.4.8 71.2c-9.5 9.7-22.5 15.2-36 15.2zm174.7 27.4h-116.4v-118.9h57v61.9h59.4z"/><path clip-path="url(#d)" d="m84.1 93.3c-22.3 22.4-52.5 34.9-84.1 34.8v-59.5c32.8 0 59.4-26.6 59.5-59.5h59.5c0 31.6-12.5 61.9-34.9 84.2zm101.2 7.4v27.4h-59.5v-118.9l23.5 5.9c19.5-19.9 51.4-20.2 71.2-.8s20.2 51.4.8 71.2c-9.5 9.7-22.5 15.2-36 15.2zm174.7 27.4h-116.4v-118.9h57v61.9h59.4z"/><path clip-path="url(#e)" d="m84.1 93.3c-22.3 22.4-52.5 34.9-84.1 34.8v-59.5c32.8 0 59.4-26.6 59.5-59.5h59.5c0 31.6-12.5 61.9-34.9 84.2zm101.2 7.4v27.4h-59.5v-118.9l23.5 5.9c19.5-19.9 51.4-20.2 71.2-.8s20.2 51.4.8 71.2c-9.5 9.7-22.5 15.2-36 15.2zm174.7 27.4h-116.4v-118.9h57v61.9h59.4z"/><path clip-path="url(#f)" d="m84.1 93.3c-22.3 22.4-52.5 34.9-84.1 34.8v-59.5c32.8 0 59.4-26.6 59.5-59.5h59.5c0 31.6-12.5 61.9-34.9 84.2zm101.2 7.4v27.4h-59.5v-118.9l23.5 5.9c19.5-19.9 51.4-20.2 71.2-.8s20.2 51.4.8 71.2c-9.5 9.7-22.5 15.2-36 15.2zm174.7 27.4h-116.4v-118.9h57v61.9h59.4z"/><path clip-path="url(#g)" d="m84.1 93.3c-22.3 22.4-52.5 34.9-84.1 34.8v-59.5c32.8 0 59.4-26.6 59.5-59.5h59.5c0 31.6-12.5 61.9-34.9 84.2zm101.2 7.4v27.4h-59.5v-118.9l23.5 5.9c19.5-19.9 51.4-20.2 71.2-.8s20.2 51.4.8 71.2c-9.5 9.7-22.5 15.2-36 15.2zm174.7 27.4h-116.4v-118.9h57v61.9h59.4z"/><path clip-path="url(#h)" d="m84.1 93.3c-22.3 22.4-52.5 34.9-84.1 34.8v-59.5c32.8 0 59.4-26.6 59.5-59.5h59.5c0 31.6-12.5 61.9-34.9 84.2zm101.2 7.4v27.4h-59.5v-118.9l23.5 5.9c19.5-19.9 51.4-20.2 71.2-.8s20.2 51.4.8 71.2c-9.5 9.7-22.5 15.2-36 15.2zm174.7 27.4h-116.4v-118.9h57v61.9h59.4z"/><path clip-path="url(#i)" d="m84.1 93.3c-22.3 22.4-52.5 34.9-84.1 34.8v-59.5c32.8 0 59.4-26.6 59.5-59.5h59.5c0 31.6-12.5 61.9-34.9 84.2zm101.2 7.4v27.4h-59.5v-118.9l23.5 5.9c19.5-19.9 51.4-20.2 71.2-.8s20.2 51.4.8 71.2c-9.5 9.7-22.5 15.2-36 15.2zm174.7 27.4h-116.4v-118.9h57v61.9h59.4z"/><path clip-path="url(#j)" d="m84.1 93.3c-22.3 22.4-52.5 34.9-84.1 34.8v-59.5c32.8 0 59.4-26.6 59.5-59.5h59.5c0 31.6-12.5 61.9-34.9 84.2zm101.2 7.4v27.4h-59.5v-118.9l23.5 5.9c19.5-19.9 51.4-20.2 71.2-.8s20.2 51.4.8 71.2c-9.5 9.7-22.5 15.2-36 15.2zm174.7 27.4h-116.4v-118.9h57v61.9h59.4z"/><path clip-path="url(#k)" d="m84.1 93.3c-22.3 22.4-52.5 34.9-84.1 34.8v-59.5c32.8 0 59.4-26.6 59.5-59.5h59.5c0 31.6-12.5 61.9-34.9 84.2zm101.2 7.4v27.4h-59.5v-118.9l23.5 5.9c19.5-19.9 51.4-20.2 71.2-.8s20.2 51.4.8 71.2c-9.5 9.7-22.5 15.2-36 15.2zm174.7 27.4h-116.4v-118.9h57v61.9h59.4z"/><path clip-path="url(#l)" d="m84.1 93.3c-22.3 22.4-52.5 34.9-84.1 34.8v-59.5c32.8 0 59.4-26.6 59.5-59.5h59.5c0 31.6-12.5 61.9-34.9 84.2zm101.2 7.4v27.4h-59.5v-118.9l23.5 5.9c19.5-19.9 51.4-20.2 71.2-.8s20.2 51.4.8 71.2c-9.5 9.7-22.5 15.2-36 15.2zm174.7 27.4h-116.4v-118.9h57v61.9h59.4z"/><path clip-path="url(#m)" d="m84.1 93.3c-22.3 22.4-52.5 34.9-84.1 34.8v-59.5c32.8 0 59.4-26.6 59.5-59.5h59.5c0 31.6-12.5 61.9-34.9 84.2zm101.2 7.4v27.4h-59.5v-118.9l23.5 5.9c19.5-19.9 51.4-20.2 71.2-.8s20.2 51.4.8 71.2c-9.5 9.7-22.5 15.2-36 15.2zm174.7 27.4h-116.4v-118.9h57v61.9h59.4z"/><path clip-path="url(#n)" d="m84.1 93.3c-22.3 22.4-52.5 34.9-84.1 34.8v-59.5c32.8 0 59.4-26.6 59.5-59.5h59.5c0 31.6-12.5 61.9-34.9 84.2zm101.2 7.4v27.4h-59.5v-118.9l23.5 5.9c19.5-19.9 51.4-20.2 71.2-.8s20.2 51.4.8 71.2c-9.5 9.7-22.5 15.2-36 15.2zm174.7 27.4h-116.4v-118.9h57v61.9h59.4z"/><path clip-path="url(#o)" d="m84.1 93.3c-22.3 22.4-52.5 34.9-84.1 34.8v-59.5c32.8 0 59.4-26.6 59.5-59.5h59.5c0 31.6-12.5 61.9-34.9 84.2zm101.2 7.4v27.4h-59.5v-118.9l23.5 5.9c19.5-19.9 51.4-20.2 71.2-.8s20.2 51.4.8 71.2c-9.5 9.7-22.5 15.2-36 15.2zm174.7 27.4h-116.4v-118.9h57v61.9h59.4z"/><path clip-path="url(#p)" d="m84.1 93.3c-22.3 22.4-52.5 34.9-84.1 34.8v-59.5c32.8 0 59.4-26.6 59.5-59.5h59.5c0 31.6-12.5 61.9-34.9 84.2zm101.2 7.4v27.4h-59.5v-118.9l23.5 5.9c19.5-19.9 51.4-20.2 71.2-.8s20.2 51.4.8 71.2c-9.5 9.7-22.5 15.2-36 15.2zm174.7 27.4h-116.4v-118.9h57v61.9h59.4z"/><path clip-path="url(#q)" d="m84.1 93.3c-22.3 22.4-52.5 34.9-84.1 34.8v-59.5c32.8 0 59.4-26.6 59.5-59.5h59.5c0 31.6-12.5 61.9-34.9 84.2zm101.2 7.4v27.4h-59.5v-118.9l23.5 5.9c19.5-19.9 51.4-20.2 71.2-.8s20.2 51.4.8 71.2c-9.5 9.7-22.5 15.2-36 15.2zm174.7 27.4h-116.4v-118.9h57v61.9h59.4z"/><path clip-path="url(#r)" d="m84.1 93.3c-22.3 22.4-52.5 34.9-84.1 34.8v-59.5c32.8 0 59.4-26.6 59.5-59.5h59.5c0 31.6-12.5 61.9-34.9 84.2zm101.2 7.4v27.4h-59.5v-118.9l23.5 5.9c19.5-19.9 51.4-20.2 71.2-.8s20.2 51.4.8 71.2c-9.5 9.7-22.5 15.2-36 15.2zm174.7 27.4h-116.4v-118.9h57v61.9h59.4z"/><path clip-path="url(#s)" d="m84.1 93.3c-22.3 22.4-52.5 34.9-84.1 34.8v-59.5c32.8 0 59.4-26.6 59.5-59.5h59.5c0 31.6-12.5 61.9-34.9 84.2zm101.2 7.4v27.4h-59.5v-118.9l23.5 5.9c19.5-19.9 51.4-20.2 71.2-.8s20.2 51.4.8 71.2c-9.5 9.7-22.5 15.2-36 15.2zm174.7 27.4h-116.4v-118.9h57v61.9h59.4z"/><path clip-path="url(#t)" d="m84.1 93.3c-22.3 22.4-52.5 34.9-84.1 34.8v-59.5c32.8 0 59.4-26.6 59.5-59.5h59.5c0 31.6-12.5 61.9-34.9 84.2zm101.2 7.4v27.4h-59.5v-118.9l23.5 5.9c19.5-19.9 51.4-20.2 71.2-.8s20.2 51.4.8 71.2c-9.5 9.7-22.5 15.2-36 15.2zm174.7 27.4h-116.4v-118.9h57v61.9h59.4z"/></g></svg>