<svg enable-background="new 0 0 360 128.1" viewBox="0 0 360 128.1" xmlns="http://www.w3.org/2000/svg"><g fill="#00d1ff"><path d="m208.3 95.1c4.7-2.4 9.1-5.6 12.9-9.5 19.5-19.9 19.2-51.7-.7-71.2s-51.7-19.2-71.2.7l-23.5-5.9v55.1h82.5z"/><path d="m125.8 104.2h59.5v23.9h-59.5z"/><path d="m0 68.6v59.5c31.6.1 61.8-12.4 84.1-34.8.4-.4.8-.9 1.3-1.3v-27.7h20.1c8.8-16.9 13.5-35.8 13.5-55.2h-33.6v15.2h-27.9c-6.7 25.5-29.9 44.3-57.5 44.3z"/><path d="m300.6 9.2h-57v95h87.6v-33.1h-30.6z"/><path d="m331.2 104.2h28.8v23.9h-28.8z"/></g></svg>