<svg enable-background="new 0 0 360 128.1" viewBox="0 0 360 128.1" xmlns="http://www.w3.org/2000/svg"><g fill="#00d1ff"><path d="m106.3 21.1c-1.1 10-3.6 19.7-7.5 29-5.4 13.1-13.2 24.7-23.2 34.7-17.3 17.4-39.6 28-63.6 30.6v-35.8c14.5-2.4 27.9-9.3 38.5-19.9s17.5-24 20-38.6zm12.7-12h-59.5c-.1 32.9-26.7 59.5-59.5 59.5v59.5h.4c31.5 0 61.5-12.5 83.7-34.8 22.4-22.3 34.9-52.6 34.9-84.2z"/><path d="m185.3 12c10.1 0 19.6 3.9 26.8 10.9 15.1 14.8 15.4 39.1.6 54.2-7.2 7.4-17.2 11.6-27.4 11.6h-12v12 15.4h-35.5v-91.5l8.6 2.2 6.7 1.7 4.8-4.9c7.3-7.5 17-11.6 27.4-11.6zm0-12c-13.1 0-26.1 5.1-36 15.1l-23.5-5.9v118.9h59.5v-27.4c13.5 0 26.5-5.5 36-15.2 19.4-19.8 19-51.8-.8-71.2-9.8-9.6-22.5-14.3-35.2-14.3z"/><path d="m288.6 21.2v49.9 12h12 47.4v33h-92.4v-94.9zm12-12h-57v118.9h116.4v-57h-59.4z"/></g></svg>